STARTFONT 2.1
FONT -FontForge-Pokemon Classic-Book-R-Normal--8-80-75-75-P-82-ISO10646-1
SIZE 8 75 75
FONTBOUNDINGBOX 15 13 0 -2
COMMENT "Generated by fontforge, http://fontforge.sourceforge.net"
COMMENT "Copyright TheLouster115 2016"
STARTPROPERTIES 39
FOUNDRY "FontForge"
FAMILY_NAME "Pokemon Classic"
WEIGHT_NAME "Book"
SLANT "R"
SETWIDTH_NAME "Normal"
ADD_STYLE_NAME ""
PIXEL_SIZE 8
POINT_SIZE 80
RESOLUTION_X 75
RESOLUTION_Y 75
SPACING "P"
AVERAGE_WIDTH 82
CHARSET_REGISTRY "ISO10646"
CHARSET_ENCODING "1"
FONTNAME_REGISTRY ""
CHARSET_COLLECTIONS "ISO8859-5 ISO8859-7 JISX0208.1997 ISO10646-1"
FONT_NAME "Pokemon-Classic"
FACE_NAME "Pokemon Classic Regular"
COPYRIGHT "Copyright TheLouster115 2016"
FONT_VERSION "1.0"
FONT_ASCENT 7
FONT_DESCENT 1
UNDERLINE_POSITION 1
UNDERLINE_THICKNESS 1
X_HEIGHT 4
CAP_HEIGHT 6
RAW_ASCENT 875
RAW_DESCENT 125
NORM_SPACE 3
RELATIVE_WEIGHT 40
RELATIVE_SETWIDTH 50
SUPERSCRIPT_X 0
SUPERSCRIPT_Y 4
SUPERSCRIPT_SIZE 4
SUBSCRIPT_X 0
SUBSCRIPT_Y 0
SUBSCRIPT_SIZE 4
AVG_LOWERCASE_WIDTH 75
AVG_UPPERCASE_WIDTH 92
ENDPROPERTIES
CHARS 577
STARTCHAR space
ENCODING 32
SWIDTH 375 0
DWIDTH 3 0
BBX 1 1 0 0
BITMAP
00
ENDCHAR
STARTCHAR exclam
ENCODING 33
SWIDTH 750 0
DWIDTH 6 0
BBX 4 8 0 0
BITMAP
60
F0
F0
F0
60
00
60
60
ENDCHAR
STARTCHAR quotedbl
ENCODING 34
SWIDTH 875 0
DWIDTH 7 0
BBX 5 2 0 5
BITMAP
D8
D8
ENDCHAR
STARTCHAR numbersign
ENCODING 35
SWIDTH 875 0
DWIDTH 7 0
BBX 5 5 0 0
BITMAP
50
F8
50
F8
50
ENDCHAR
STARTCHAR dollar
ENCODING 36
SWIDTH 875 0
DWIDTH 7 0
BBX 5 8 0 0
BITMAP
78
48
78
40
E0
40
E0
40
ENDCHAR
STARTCHAR percent
ENCODING 37
SWIDTH 1125 0
DWIDTH 9 0
BBX 7 7 0 0
BITMAP
42
A4
48
10
24
4A
84
ENDCHAR
STARTCHAR ampersand
ENCODING 38
SWIDTH 1125 0
DWIDTH 9 0
BBX 7 7 0 0
BITMAP
30
68
68
32
5A
CC
7A
ENDCHAR
STARTCHAR quotesingle
ENCODING 39
SWIDTH 500 0
DWIDTH 4 0
BBX 2 2 0 5
BITMAP
C0
C0
ENDCHAR
STARTCHAR parenleft
ENCODING 40
SWIDTH 750 0
DWIDTH 6 0
BBX 4 7 0 0
BITMAP
30
40
80
80
80
40
30
ENDCHAR
STARTCHAR parenright
ENCODING 41
SWIDTH 750 0
DWIDTH 6 0
BBX 4 7 0 0
BITMAP
C0
20
10
10
10
20
C0
ENDCHAR
STARTCHAR asterisk
ENCODING 42
SWIDTH 875 0
DWIDTH 7 0
BBX 5 3 0 4
BITMAP
A8
70
A8
ENDCHAR
STARTCHAR plus
ENCODING 43
SWIDTH 875 0
DWIDTH 7 0
BBX 5 5 0 1
BITMAP
20
20
F8
20
20
ENDCHAR
STARTCHAR comma
ENCODING 44
SWIDTH 500 0
DWIDTH 4 0
BBX 2 4 0 -1
BITMAP
C0
C0
40
80
ENDCHAR
STARTCHAR hyphen
ENCODING 45
SWIDTH 875 0
DWIDTH 7 0
BBX 5 1 0 3
BITMAP
F8
ENDCHAR
STARTCHAR period
ENCODING 46
SWIDTH 500 0
DWIDTH 4 0
BBX 2 2 0 0
BITMAP
C0
C0
ENDCHAR
STARTCHAR slash
ENCODING 47
SWIDTH 1125 0
DWIDTH 9 0
BBX 7 7 0 0
BITMAP
02
04
08
10
20
40
80
ENDCHAR
STARTCHAR zero
ENCODING 48
SWIDTH 1125 0
DWIDTH 9 0
BBX 7 6 0 0
BITMAP
38
4C
C6
C6
64
38
ENDCHAR
STARTCHAR one
ENCODING 49
SWIDTH 1000 0
DWIDTH 8 0
BBX 6 6 0 0
BITMAP
30
70
30
30
30
FC
ENDCHAR
STARTCHAR two
ENCODING 50
SWIDTH 1125 0
DWIDTH 9 0
BBX 7 6 0 0
BITMAP
7C
C6
0E
78
E0
FE
ENDCHAR
STARTCHAR three
ENCODING 51
SWIDTH 1125 0
DWIDTH 9 0
BBX 7 6 0 0
BITMAP
7E
0C
38
06
C6
7C
ENDCHAR
STARTCHAR four
ENCODING 52
SWIDTH 1125 0
DWIDTH 9 0
BBX 7 6 0 0
BITMAP
1C
3C
6C
CC
FE
0C
ENDCHAR
STARTCHAR five
ENCODING 53
SWIDTH 1125 0
DWIDTH 9 0
BBX 7 6 0 0
BITMAP
FC
C0
FC
06
C6
7C
ENDCHAR
STARTCHAR six
ENCODING 54
SWIDTH 1125 0
DWIDTH 9 0
BBX 7 6 0 0
BITMAP
7C
C0
FC
C6
C6
7C
ENDCHAR
STARTCHAR seven
ENCODING 55
SWIDTH 1125 0
DWIDTH 9 0
BBX 7 6 0 0
BITMAP
FE
C6
0C
18
30
30
ENDCHAR
STARTCHAR eight
ENCODING 56
SWIDTH 1125 0
DWIDTH 9 0
BBX 7 6 0 0
BITMAP
7C
C6
7C
C6
C6
7C
ENDCHAR
STARTCHAR nine
ENCODING 57
SWIDTH 1125 0
DWIDTH 9 0
BBX 7 6 0 0
BITMAP
7C
C6
C6
7E
06
7C
ENDCHAR
STARTCHAR colon
ENCODING 58
SWIDTH 500 0
DWIDTH 4 0
BBX 2 6 0 0
BITMAP
C0
C0
00
00
C0
C0
ENDCHAR
STARTCHAR semicolon
ENCODING 59
SWIDTH 500 0
DWIDTH 4 0
BBX 2 7 0 -1
BITMAP
C0
C0
00
C0
C0
40
80
ENDCHAR
STARTCHAR less
ENCODING 60
SWIDTH 750 0
DWIDTH 6 0
BBX 4 7 0 0
BITMAP
10
20
40
80
40
20
10
ENDCHAR
STARTCHAR equal
ENCODING 61
SWIDTH 875 0
DWIDTH 7 0
BBX 5 3 0 2
BITMAP
F8
00
F8
ENDCHAR
STARTCHAR greater
ENCODING 62
SWIDTH 750 0
DWIDTH 6 0
BBX 4 7 0 0
BITMAP
80
40
20
10
20
40
80
ENDCHAR
STARTCHAR question
ENCODING 63
SWIDTH 1250 0
DWIDTH 10 0
BBX 8 7 0 0
BITMAP
7E
E7
CE
18
00
18
18
ENDCHAR
STARTCHAR at
ENCODING 64
SWIDTH 875 0
DWIDTH 7 0
BBX 5 7 0 0
BITMAP
F8
88
88
88
88
88
F8
ENDCHAR
STARTCHAR A
ENCODING 65
SWIDTH 1125 0
DWIDTH 9 0
BBX 7 7 0 0
BITMAP
10
28
28
44
7C
82
82
ENDCHAR
STARTCHAR B
ENCODING 66
SWIDTH 1125 0
DWIDTH 9 0
BBX 7 7 0 0
BITMAP
F8
84
84
FC
82
82
FC
ENDCHAR
STARTCHAR C
ENCODING 67
SWIDTH 1125 0
DWIDTH 9 0
BBX 7 7 0 0
BITMAP
3C
42
80
80
80
42
3C
ENDCHAR
STARTCHAR D
ENCODING 68
SWIDTH 1125 0
DWIDTH 9 0
BBX 7 7 0 0
BITMAP
F8
84
82
82
82
84
F8
ENDCHAR
STARTCHAR E
ENCODING 69
SWIDTH 1125 0
DWIDTH 9 0
BBX 7 7 0 0
BITMAP
FE
80
80
FC
80
80
FE
ENDCHAR
STARTCHAR F
ENCODING 70
SWIDTH 1125 0
DWIDTH 9 0
BBX 7 7 0 0
BITMAP
FE
80
80
FC
80
80
80
ENDCHAR
STARTCHAR G
ENCODING 71
SWIDTH 1125 0
DWIDTH 9 0
BBX 7 7 0 0
BITMAP
3C
42
80
9E
82
42
3C
ENDCHAR
STARTCHAR H
ENCODING 72
SWIDTH 1125 0
DWIDTH 9 0
BBX 7 7 0 0
BITMAP
82
82
82
FE
82
82
82
ENDCHAR
STARTCHAR I
ENCODING 73
SWIDTH 875 0
DWIDTH 7 0
BBX 5 7 0 0
BITMAP
F8
20
20
20
20
20
F8
ENDCHAR
STARTCHAR J
ENCODING 74
SWIDTH 1125 0
DWIDTH 9 0
BBX 7 7 0 0
BITMAP
7E
08
08
08
88
88
70
ENDCHAR
STARTCHAR K
ENCODING 75
SWIDTH 1125 0
DWIDTH 9 0
BBX 7 7 0 0
BITMAP
84
88
90
B0
C8
84
82
ENDCHAR
STARTCHAR L
ENCODING 76
SWIDTH 1125 0
DWIDTH 9 0
BBX 7 7 0 0
BITMAP
80
80
80
80
80
80
FE
ENDCHAR
STARTCHAR M
ENCODING 77
SWIDTH 1125 0
DWIDTH 9 0
BBX 7 7 0 0
BITMAP
82
C6
AA
92
82
82
82
ENDCHAR
STARTCHAR N
ENCODING 78
SWIDTH 1125 0
DWIDTH 9 0
BBX 7 7 0 0
BITMAP
82
C2
A2
92
8A
86
82
ENDCHAR
STARTCHAR O
ENCODING 79
SWIDTH 1125 0
DWIDTH 9 0
BBX 7 7 0 0
BITMAP
38
44
82
82
82
44
38
ENDCHAR
STARTCHAR P
ENCODING 80
SWIDTH 1125 0
DWIDTH 9 0
BBX 7 7 0 0
BITMAP
FC
82
82
FC
80
80
80
ENDCHAR
STARTCHAR Q
ENCODING 81
SWIDTH 1125 0
DWIDTH 9 0
BBX 7 7 0 0
BITMAP
38
44
82
82
8A
44
3A
ENDCHAR
STARTCHAR R
ENCODING 82
SWIDTH 1125 0
DWIDTH 9 0
BBX 7 7 0 0
BITMAP
FC
82
82
FC
88
84
82
ENDCHAR
STARTCHAR S
ENCODING 83
SWIDTH 1125 0
DWIDTH 9 0
BBX 7 7 0 0
BITMAP
78
84
80
7C
02
82
7C
ENDCHAR
STARTCHAR T
ENCODING 84
SWIDTH 1125 0
DWIDTH 9 0
BBX 7 7 0 0
BITMAP
FE
10
10
10
10
10
10
ENDCHAR
STARTCHAR U
ENCODING 85
SWIDTH 1125 0
DWIDTH 9 0
BBX 7 7 0 0
BITMAP
82
82
82
82
82
42
3E
ENDCHAR
STARTCHAR V
ENCODING 86
SWIDTH 1125 0
DWIDTH 9 0
BBX 7 7 0 0
BITMAP
82
82
44
44
28
28
10
ENDCHAR
STARTCHAR W
ENCODING 87
SWIDTH 1125 0
DWIDTH 9 0
BBX 7 7 0 0
BITMAP
82
92
AA
AA
C6
C6
82
ENDCHAR
STARTCHAR X
ENCODING 88
SWIDTH 1125 0
DWIDTH 9 0
BBX 7 7 0 0
BITMAP
C6
44
28
10
28
44
C6
ENDCHAR
STARTCHAR Y
ENCODING 89
SWIDTH 1125 0
DWIDTH 9 0
BBX 7 7 0 0
BITMAP
82
44
28
10
10
10
10
ENDCHAR
STARTCHAR Z
ENCODING 90
SWIDTH 1125 0
DWIDTH 9 0
BBX 7 7 0 0
BITMAP
FE
04
08
10
20
40
FE
ENDCHAR
STARTCHAR bracketleft
ENCODING 91
SWIDTH 625 0
DWIDTH 5 0
BBX 3 7 0 0
BITMAP
E0
80
80
80
80
80
E0
ENDCHAR
STARTCHAR backslash
ENCODING 92
SWIDTH 1125 0
DWIDTH 9 0
BBX 7 7 0 0
BITMAP
80
40
20
10
08
04
02
ENDCHAR
STARTCHAR bracketright
ENCODING 93
SWIDTH 625 0
DWIDTH 5 0
BBX 3 7 0 0
BITMAP
E0
20
20
20
20
20
E0
ENDCHAR
STARTCHAR asciicircum
ENCODING 94
SWIDTH 1125 0
DWIDTH 9 0
BBX 7 4 0 3
BITMAP
10
28
44
82
ENDCHAR
STARTCHAR underscore
ENCODING 95
SWIDTH 875 0
DWIDTH 7 0
BBX 5 1 0 0
BITMAP
F8
ENDCHAR
STARTCHAR grave
ENCODING 96
SWIDTH 500 0
DWIDTH 4 0
BBX 2 3 0 4
BITMAP
C0
C0
40
ENDCHAR
STARTCHAR a
ENCODING 97
SWIDTH 1000 0
DWIDTH 8 0
BBX 6 5 0 0
BITMAP
70
08
78
88
7C
ENDCHAR
STARTCHAR b
ENCODING 98
SWIDTH 1000 0
DWIDTH 8 0
BBX 6 7 0 0
BITMAP
80
80
80
F8
84
84
F8
ENDCHAR
STARTCHAR c
ENCODING 99
SWIDTH 1000 0
DWIDTH 8 0
BBX 6 5 0 0
BITMAP
78
84
80
84
78
ENDCHAR
STARTCHAR d
ENCODING 100
SWIDTH 1000 0
DWIDTH 8 0
BBX 6 7 0 0
BITMAP
04
04
04
7C
84
84
7C
ENDCHAR
STARTCHAR e
ENCODING 101
SWIDTH 1000 0
DWIDTH 8 0
BBX 6 5 0 0
BITMAP
78
84
FC
80
7C
ENDCHAR
STARTCHAR f
ENCODING 102
SWIDTH 1000 0
DWIDTH 8 0
BBX 6 7 0 0
BITMAP
18
24
20
FC
20
20
20
ENDCHAR
STARTCHAR g
ENCODING 103
SWIDTH 1000 0
DWIDTH 8 0
BBX 6 6 0 -1
BITMAP
7C
84
84
7C
04
F8
ENDCHAR
STARTCHAR h
ENCODING 104
SWIDTH 875 0
DWIDTH 7 0
BBX 5 7 0 0
BITMAP
80
80
80
F0
88
88
88
ENDCHAR
STARTCHAR i
ENCODING 105
SWIDTH 375 0
DWIDTH 3 0
BBX 1 6 0 0
BITMAP
80
00
80
80
80
80
ENDCHAR
STARTCHAR j
ENCODING 106
SWIDTH 625 0
DWIDTH 5 0
BBX 3 7 0 -1
BITMAP
20
00
20
20
20
20
C0
ENDCHAR
STARTCHAR k
ENCODING 107
SWIDTH 1000 0
DWIDTH 8 0
BBX 6 7 0 0
BITMAP
80
80
8C
B0
C0
B0
8C
ENDCHAR
STARTCHAR l
ENCODING 108
SWIDTH 375 0
DWIDTH 3 0
BBX 1 7 0 0
BITMAP
80
80
80
80
80
80
80
ENDCHAR
STARTCHAR m
ENCODING 109
SWIDTH 1125 0
DWIDTH 9 0
BBX 7 5 0 0
BITMAP
EC
92
92
92
92
ENDCHAR
STARTCHAR n
ENCODING 110
SWIDTH 875 0
DWIDTH 7 0
BBX 5 5 0 0
BITMAP
F0
88
88
88
88
ENDCHAR
STARTCHAR o
ENCODING 111
SWIDTH 1000 0
DWIDTH 8 0
BBX 6 5 0 0
BITMAP
78
84
84
84
78
ENDCHAR
STARTCHAR p
ENCODING 112
SWIDTH 1000 0
DWIDTH 8 0
BBX 6 6 0 -1
BITMAP
F8
84
84
F8
80
80
ENDCHAR
STARTCHAR q
ENCODING 113
SWIDTH 1000 0
DWIDTH 8 0
BBX 6 6 0 -1
BITMAP
7C
84
84
7C
04
04
ENDCHAR
STARTCHAR r
ENCODING 114
SWIDTH 1000 0
DWIDTH 8 0
BBX 6 5 0 0
BITMAP
9C
A0
C0
80
80
ENDCHAR
STARTCHAR s
ENCODING 115
SWIDTH 1000 0
DWIDTH 8 0
BBX 6 5 0 0
BITMAP
78
80
78
04
F8
ENDCHAR
STARTCHAR t
ENCODING 116
SWIDTH 875 0
DWIDTH 7 0
BBX 5 6 0 0
BITMAP
20
F8
20
20
20
18
ENDCHAR
STARTCHAR u
ENCODING 117
SWIDTH 875 0
DWIDTH 7 0
BBX 5 5 0 0
BITMAP
88
88
88
88
78
ENDCHAR
STARTCHAR v
ENCODING 118
SWIDTH 875 0
DWIDTH 7 0
BBX 5 5 0 0
BITMAP
88
88
88
50
20
ENDCHAR
STARTCHAR w
ENCODING 119
SWIDTH 1125 0
DWIDTH 9 0
BBX 7 5 0 0
BITMAP
82
92
92
AA
44
ENDCHAR
STARTCHAR x
ENCODING 120
SWIDTH 1125 0
DWIDTH 9 0
BBX 7 5 0 0
BITMAP
C4
28
10
28
46
ENDCHAR
STARTCHAR y
ENCODING 121
SWIDTH 875 0
DWIDTH 7 0
BBX 5 6 0 -1
BITMAP
88
88
88
78
08
F0
ENDCHAR
STARTCHAR z
ENCODING 122
SWIDTH 1000 0
DWIDTH 8 0
BBX 6 5 0 0
BITMAP
FC
08
30
40
FC
ENDCHAR
STARTCHAR braceleft
ENCODING 123
SWIDTH 750 0
DWIDTH 6 0
BBX 4 7 0 0
BITMAP
70
40
40
80
40
40
70
ENDCHAR
STARTCHAR bar
ENCODING 124
SWIDTH 375 0
DWIDTH 3 0
BBX 1 7 0 0
BITMAP
80
80
80
80
80
80
80
ENDCHAR
STARTCHAR braceright
ENCODING 125
SWIDTH 750 0
DWIDTH 6 0
BBX 4 7 0 0
BITMAP
E0
20
20
10
20
20
E0
ENDCHAR
STARTCHAR asciitilde
ENCODING 126
SWIDTH 1000 0
DWIDTH 8 0
BBX 6 2 0 2
BITMAP
64
98
ENDCHAR
STARTCHAR exclamdown
ENCODING 161
SWIDTH 750 0
DWIDTH 6 0
BBX 4 8 0 0
BITMAP
60
60
00
60
F0
F0
F0
60
ENDCHAR
STARTCHAR cent
ENCODING 162
SWIDTH 875 0
DWIDTH 7 0
BBX 5 7 0 0
BITMAP
F8
88
88
88
88
88
F8
ENDCHAR
STARTCHAR sterling
ENCODING 163
SWIDTH 875 0
DWIDTH 7 0
BBX 5 7 0 0
BITMAP
F8
88
88
88
88
88
F8
ENDCHAR
STARTCHAR currency
ENCODING 164
SWIDTH 875 0
DWIDTH 7 0
BBX 5 7 0 0
BITMAP
F8
88
88
88
88
88
F8
ENDCHAR
STARTCHAR yen
ENCODING 165
SWIDTH 1125 0
DWIDTH 9 0
BBX 7 7 0 0
BITMAP
FE
92
92
FE
82
82
86
ENDCHAR
STARTCHAR section
ENCODING 167
SWIDTH 875 0
DWIDTH 7 0
BBX 5 7 0 0
BITMAP
F8
88
88
88
88
88
F8
ENDCHAR
STARTCHAR copyright
ENCODING 169
SWIDTH 875 0
DWIDTH 7 0
BBX 5 7 0 0
BITMAP
F8
88
88
88
88
88
F8
ENDCHAR
STARTCHAR registered
ENCODING 174
SWIDTH 875 0
DWIDTH 7 0
BBX 5 7 0 0
BITMAP
F8
88
88
88
88
88
F8
ENDCHAR
STARTCHAR plusminus
ENCODING 177
SWIDTH 875 0
DWIDTH 7 0
BBX 5 5 0 1
BITMAP
20
70
20
00
F8
ENDCHAR
STARTCHAR uni00B2
ENCODING 178
SWIDTH 875 0
DWIDTH 7 0
BBX 5 5 0 1
BITMAP
70
D8
30
60
F8
ENDCHAR
STARTCHAR uni00B3
ENCODING 179
SWIDTH 875 0
DWIDTH 7 0
BBX 5 5 0 1
BITMAP
70
D8
30
D8
70
ENDCHAR
STARTCHAR mu
ENCODING 181
SWIDTH 1000 0
DWIDTH 8 0
BBX 6 6 0 -1
BITMAP
84
84
84
CC
B4
80
ENDCHAR
STARTCHAR uni00B9
ENCODING 185
SWIDTH 625 0
DWIDTH 5 0
BBX 3 5 0 1
BITMAP
60
E0
60
60
60
ENDCHAR
STARTCHAR questiondown
ENCODING 191
SWIDTH 1250 0
DWIDTH 10 0
BBX 8 7 0 0
BITMAP
18
18
00
18
73
E7
7E
ENDCHAR
STARTCHAR Agrave
ENCODING 192
SWIDTH 1125 0
DWIDTH 9 0
BBX 7 7 0 0
BITMAP
10
08
10
28
44
FE
82
ENDCHAR
STARTCHAR Aacute
ENCODING 193
SWIDTH 1125 0
DWIDTH 9 0
BBX 7 7 0 0
BITMAP
10
20
10
28
44
FE
82
ENDCHAR
STARTCHAR Acircumflex
ENCODING 194
SWIDTH 1125 0
DWIDTH 9 0
BBX 7 7 0 0
BITMAP
10
28
10
28
44
FE
82
ENDCHAR
STARTCHAR Atilde
ENCODING 195
SWIDTH 1125 0
DWIDTH 9 0
BBX 7 7 0 0
BITMAP
14
28
10
28
44
FE
82
ENDCHAR
STARTCHAR Adieresis
ENCODING 196
SWIDTH 1125 0
DWIDTH 9 0
BBX 7 6 0 0
BITMAP
28
10
28
44
FE
82
ENDCHAR
STARTCHAR Aring
ENCODING 197
SWIDTH 1125 0
DWIDTH 9 0
BBX 7 8 0 0
BITMAP
10
28
10
10
28
44
FE
82
ENDCHAR
STARTCHAR AE
ENCODING 198
SWIDTH 1375 0
DWIDTH 11 0
BBX 9 7 0 0
BITMAP
1F80
2800
2800
4F00
7800
8800
8F80
ENDCHAR
STARTCHAR Ccedilla
ENCODING 199
SWIDTH 1000 0
DWIDTH 8 0
BBX 6 7 0 -2
BITMAP
38
44
80
44
38
10
20
ENDCHAR
STARTCHAR Egrave
ENCODING 200
SWIDTH 1125 0
DWIDTH 9 0
BBX 7 7 0 0
BITMAP
20
10
FE
80
FC
80
FE
ENDCHAR
STARTCHAR Eacute
ENCODING 201
SWIDTH 1125 0
DWIDTH 9 0
BBX 7 7 0 0
BITMAP
10
20
FE
80
FC
80
FE
ENDCHAR
STARTCHAR Ecircumflex
ENCODING 202
SWIDTH 1125 0
DWIDTH 9 0
BBX 7 7 0 0
BITMAP
10
28
FE
80
FC
80
FE
ENDCHAR
STARTCHAR Edieresis
ENCODING 203
SWIDTH 1125 0
DWIDTH 9 0
BBX 7 6 0 0
BITMAP
28
FE
80
FC
80
FE
ENDCHAR
STARTCHAR Igrave
ENCODING 204
SWIDTH 875 0
DWIDTH 7 0
BBX 5 7 0 0
BITMAP
20
10
F8
20
20
20
F8
ENDCHAR
STARTCHAR Iacute
ENCODING 205
SWIDTH 875 0
DWIDTH 7 0
BBX 5 7 0 0
BITMAP
20
40
F8
20
20
20
F8
ENDCHAR
STARTCHAR Icircumflex
ENCODING 206
SWIDTH 875 0
DWIDTH 7 0
BBX 5 7 0 0
BITMAP
20
50
F8
20
20
20
F8
ENDCHAR
STARTCHAR Idieresis
ENCODING 207
SWIDTH 875 0
DWIDTH 7 0
BBX 5 6 0 0
BITMAP
50
F8
20
20
20
F8
ENDCHAR
STARTCHAR Eth
ENCODING 208
SWIDTH 1250 0
DWIDTH 10 0
BBX 8 7 0 0
BITMAP
7C
42
41
E1
41
42
7C
ENDCHAR
STARTCHAR Ntilde
ENCODING 209
SWIDTH 1125 0
DWIDTH 9 0
BBX 7 7 0 0
BITMAP
32
4C
C2
A2
92
8A
86
ENDCHAR
STARTCHAR Ograve
ENCODING 210
SWIDTH 1125 0
DWIDTH 9 0
BBX 7 8 0 0
BITMAP
10
08
38
44
82
82
44
38
ENDCHAR
STARTCHAR Oacute
ENCODING 211
SWIDTH 1125 0
DWIDTH 9 0
BBX 7 8 0 0
BITMAP
10
20
38
44
82
82
44
38
ENDCHAR
STARTCHAR Ocircumflex
ENCODING 212
SWIDTH 1125 0
DWIDTH 9 0
BBX 7 8 0 0
BITMAP
10
28
38
44
82
82
44
38
ENDCHAR
STARTCHAR Otilde
ENCODING 213
SWIDTH 1125 0
DWIDTH 9 0
BBX 7 8 0 0
BITMAP
32
4C
38
44
82
82
44
38
ENDCHAR
STARTCHAR Odieresis
ENCODING 214
SWIDTH 1125 0
DWIDTH 9 0
BBX 7 7 0 0
BITMAP
28
38
44
82
82
44
38
ENDCHAR
STARTCHAR multiply
ENCODING 215
SWIDTH 875 0
DWIDTH 7 0
BBX 5 5 0 1
BITMAP
88
50
20
50
88
ENDCHAR
STARTCHAR Oslash
ENCODING 216
SWIDTH 1125 0
DWIDTH 9 0
BBX 7 7 0 0
BITMAP
3A
44
8A
92
A2
44
B8
ENDCHAR
STARTCHAR Ugrave
ENCODING 217
SWIDTH 1125 0
DWIDTH 9 0
BBX 7 7 0 0
BITMAP
10
08
82
82
82
42
3E
ENDCHAR
STARTCHAR Uacute
ENCODING 218
SWIDTH 1125 0
DWIDTH 9 0
BBX 7 7 0 0
BITMAP
10
20
82
82
82
42
3E
ENDCHAR
STARTCHAR Ucircumflex
ENCODING 219
SWIDTH 1125 0
DWIDTH 9 0
BBX 7 7 0 0
BITMAP
10
28
82
82
82
42
3E
ENDCHAR
STARTCHAR Udieresis
ENCODING 220
SWIDTH 1125 0
DWIDTH 9 0
BBX 7 6 0 0
BITMAP
28
82
82
82
42
3E
ENDCHAR
STARTCHAR Yacute
ENCODING 221
SWIDTH 1125 0
DWIDTH 9 0
BBX 7 6 0 0
BITMAP
08
92
44
28
10
10
ENDCHAR
STARTCHAR Thorn
ENCODING 222
SWIDTH 1000 0
DWIDTH 8 0
BBX 6 7 0 0
BITMAP
80
F8
84
84
84
F8
80
ENDCHAR
STARTCHAR germandbls
ENCODING 223
SWIDTH 1000 0
DWIDTH 8 0
BBX 6 7 0 0
BITMAP
F0
88
88
B8
84
A4
98
ENDCHAR
STARTCHAR agrave
ENCODING 224
SWIDTH 1000 0
DWIDTH 8 0
BBX 6 7 0 0
BITMAP
40
20
70
08
78
88
7C
ENDCHAR
STARTCHAR aacute
ENCODING 225
SWIDTH 1000 0
DWIDTH 8 0
BBX 6 7 0 0
BITMAP
20
40
70
08
78
88
7C
ENDCHAR
STARTCHAR acircumflex
ENCODING 226
SWIDTH 1000 0
DWIDTH 8 0
BBX 6 7 0 0
BITMAP
20
50
70
08
78
88
7C
ENDCHAR
STARTCHAR atilde
ENCODING 227
SWIDTH 1000 0
DWIDTH 8 0
BBX 6 7 0 0
BITMAP
28
50
70
08
78
88
7C
ENDCHAR
STARTCHAR adieresis
ENCODING 228
SWIDTH 1000 0
DWIDTH 8 0
BBX 6 7 0 0
BITMAP
50
00
70
08
78
88
7C
ENDCHAR
STARTCHAR aring
ENCODING 229
SWIDTH 1000 0
DWIDTH 8 0
BBX 6 8 0 0
BITMAP
20
50
20
70
08
78
88
7C
ENDCHAR
STARTCHAR ae
ENCODING 230
SWIDTH 1375 0
DWIDTH 11 0
BBX 9 5 0 0
BITMAP
7700
0880
7F80
8800
7780
ENDCHAR
STARTCHAR ccedilla
ENCODING 231
SWIDTH 1000 0
DWIDTH 8 0
BBX 6 6 0 -2
BITMAP
78
84
80
78
10
30
ENDCHAR
STARTCHAR egrave
ENCODING 232
SWIDTH 1000 0
DWIDTH 8 0
BBX 6 7 0 0
BITMAP
20
10
78
84
FC
80
7C
ENDCHAR
STARTCHAR eacute
ENCODING 233
SWIDTH 1000 0
DWIDTH 8 0
BBX 6 7 0 0
BITMAP
10
20
78
84
FC
80
7C
ENDCHAR
STARTCHAR ecircumflex
ENCODING 234
SWIDTH 1000 0
DWIDTH 8 0
BBX 6 7 0 0
BITMAP
20
50
78
84
FC
80
7C
ENDCHAR
STARTCHAR edieresis
ENCODING 235
SWIDTH 1000 0
DWIDTH 8 0
BBX 6 6 0 0
BITMAP
50
78
84
FC
80
7C
ENDCHAR
STARTCHAR igrave
ENCODING 236
SWIDTH 500 0
DWIDTH 4 0
BBX 2 7 0 0
BITMAP
80
40
00
40
40
40
40
ENDCHAR
STARTCHAR iacute
ENCODING 237
SWIDTH 500 0
DWIDTH 4 0
BBX 2 7 0 0
BITMAP
40
80
00
80
80
80
80
ENDCHAR
STARTCHAR icircumflex
ENCODING 238
SWIDTH 625 0
DWIDTH 5 0
BBX 3 7 0 0
BITMAP
40
A0
00
40
40
40
40
ENDCHAR
STARTCHAR idieresis
ENCODING 239
SWIDTH 625 0
DWIDTH 5 0
BBX 3 6 0 0
BITMAP
A0
00
40
40
40
40
ENDCHAR
STARTCHAR ntilde
ENCODING 241
SWIDTH 1000 0
DWIDTH 8 0
BBX 6 7 0 0
BITMAP
64
98
78
44
44
44
44
ENDCHAR
STARTCHAR ograve
ENCODING 242
SWIDTH 1000 0
DWIDTH 8 0
BBX 6 7 0 0
BITMAP
40
20
78
84
84
84
78
ENDCHAR
STARTCHAR oacute
ENCODING 243
SWIDTH 1000 0
DWIDTH 8 0
BBX 6 7 0 0
BITMAP
10
20
78
84
84
84
78
ENDCHAR
STARTCHAR ocircumflex
ENCODING 244
SWIDTH 1000 0
DWIDTH 8 0
BBX 6 8 0 0
BITMAP
20
50
00
78
84
84
84
78
ENDCHAR
STARTCHAR otilde
ENCODING 245
SWIDTH 1000 0
DWIDTH 8 0
BBX 6 8 0 0
BITMAP
28
50
00
78
84
84
84
78
ENDCHAR
STARTCHAR odieresis
ENCODING 246
SWIDTH 1000 0
DWIDTH 8 0
BBX 6 7 0 0
BITMAP
50
00
78
84
84
84
78
ENDCHAR
STARTCHAR divide
ENCODING 247
SWIDTH 875 0
DWIDTH 7 0
BBX 5 5 0 1
BITMAP
20
00
F8
00
20
ENDCHAR
STARTCHAR oslash
ENCODING 248
SWIDTH 1000 0
DWIDTH 8 0
BBX 6 5 0 0
BITMAP
78
8C
B4
C4
78
ENDCHAR
STARTCHAR ugrave
ENCODING 249
SWIDTH 875 0
DWIDTH 7 0
BBX 5 7 0 0
BITMAP
40
20
88
88
88
88
78
ENDCHAR
STARTCHAR uacute
ENCODING 250
SWIDTH 875 0
DWIDTH 7 0
BBX 5 7 0 0
BITMAP
10
20
88
88
88
88
78
ENDCHAR
STARTCHAR ucircumflex
ENCODING 251
SWIDTH 875 0
DWIDTH 7 0
BBX 5 8 0 0
BITMAP
20
50
00
88
88
88
88
78
ENDCHAR
STARTCHAR udieresis
ENCODING 252
SWIDTH 875 0
DWIDTH 7 0
BBX 5 7 0 0
BITMAP
50
00
88
88
88
88
78
ENDCHAR
STARTCHAR yacute
ENCODING 253
SWIDTH 875 0
DWIDTH 7 0
BBX 5 8 0 -1
BITMAP
10
20
88
88
88
78
08
F0
ENDCHAR
STARTCHAR thorn
ENCODING 254
SWIDTH 875 0
DWIDTH 7 0
BBX 5 7 0 0
BITMAP
F8
88
88
88
88
88
F8
ENDCHAR
STARTCHAR ydieresis
ENCODING 255
SWIDTH 875 0
DWIDTH 7 0
BBX 5 8 0 -1
BITMAP
50
00
88
88
88
78
08
F0
ENDCHAR
STARTCHAR OE
ENCODING 338
SWIDTH 1375 0
DWIDTH 11 0
BBX 9 7 0 0
BITMAP
3780
4800
8800
8F00
8800
4800
3780
ENDCHAR
STARTCHAR oe
ENCODING 339
SWIDTH 1375 0
DWIDTH 11 0
BBX 9 5 0 0
BITMAP
7700
8880
8F80
8800
7780
ENDCHAR
STARTCHAR Ydieresis
ENCODING 376
SWIDTH 1125 0
DWIDTH 9 0
BBX 7 6 0 0
BITMAP
28
82
44
28
10
10
ENDCHAR
STARTCHAR tonos
ENCODING 900
SWIDTH 375 0
DWIDTH 3 0
BBX 1 2 0 5
BITMAP
80
80
ENDCHAR
STARTCHAR dieresistonos
ENCODING 901
SWIDTH 625 0
DWIDTH 5 0
BBX 3 2 0 6
BITMAP
40
E0
ENDCHAR
STARTCHAR Alphatonos
ENCODING 902
SWIDTH 1375 0
DWIDTH 11 0
BBX 9 7 0 0
BITMAP
8400
0A00
0A00
1100
1F00
2080
2080
ENDCHAR
STARTCHAR Epsilontonos
ENCODING 904
SWIDTH 1375 0
DWIDTH 11 0
BBX 9 7 0 0
BITMAP
BF80
A000
2000
3F00
2000
2000
3F80
ENDCHAR
STARTCHAR Etatonos
ENCODING 905
SWIDTH 1375 0
DWIDTH 11 0
BBX 9 7 0 0
BITMAP
A080
A080
2080
3F80
2080
2080
2080
ENDCHAR
STARTCHAR Iotatonos
ENCODING 906
SWIDTH 1125 0
DWIDTH 9 0
BBX 7 7 0 0
BITMAP
BE
88
08
08
08
08
3E
ENDCHAR
STARTCHAR Omicrontonos
ENCODING 908
SWIDTH 1375 0
DWIDTH 11 0
BBX 9 7 0 0
BITMAP
8E00
9100
2080
2080
2080
1100
0E00
ENDCHAR
STARTCHAR Upsilontonos
ENCODING 910
SWIDTH 1375 0
DWIDTH 11 0
BBX 9 7 0 0
BITMAP
A080
9100
0A00
0400
0400
0400
0400
ENDCHAR
STARTCHAR Omegatonos
ENCODING 911
SWIDTH 1375 0
DWIDTH 11 0
BBX 9 7 0 0
BITMAP
8E00
9100
2080
2080
1100
0A00
3B80
ENDCHAR
STARTCHAR iotadieresistonos
ENCODING 912
SWIDTH 625 0
DWIDTH 5 0
BBX 3 8 0 0
BITMAP
40
E0
00
40
40
40
40
20
ENDCHAR
STARTCHAR Alpha
ENCODING 913
SWIDTH 1125 0
DWIDTH 9 0
BBX 7 7 0 0
BITMAP
10
28
28
44
7C
82
82
ENDCHAR
STARTCHAR Beta
ENCODING 914
SWIDTH 1125 0
DWIDTH 9 0
BBX 7 7 0 0
BITMAP
F8
84
84
FC
82
82
FC
ENDCHAR
STARTCHAR Gamma
ENCODING 915
SWIDTH 1125 0
DWIDTH 9 0
BBX 7 7 0 0
BITMAP
FE
80
80
80
80
80
80
ENDCHAR
STARTCHAR uni0394
ENCODING 916
SWIDTH 1125 0
DWIDTH 9 0
BBX 7 7 0 0
BITMAP
10
28
28
44
44
82
FE
ENDCHAR
STARTCHAR Epsilon
ENCODING 917
SWIDTH 1125 0
DWIDTH 9 0
BBX 7 7 0 0
BITMAP
FE
80
80
FC
80
80
FE
ENDCHAR
STARTCHAR Zeta
ENCODING 918
SWIDTH 1125 0
DWIDTH 9 0
BBX 7 7 0 0
BITMAP
FE
04
08
10
20
40
FE
ENDCHAR
STARTCHAR Eta
ENCODING 919
SWIDTH 1125 0
DWIDTH 9 0
BBX 7 7 0 0
BITMAP
82
82
82
FE
82
82
82
ENDCHAR
STARTCHAR Theta
ENCODING 920
SWIDTH 1125 0
DWIDTH 9 0
BBX 7 7 0 0
BITMAP
38
44
82
FE
82
44
38
ENDCHAR
STARTCHAR Iota
ENCODING 921
SWIDTH 875 0
DWIDTH 7 0
BBX 5 7 0 0
BITMAP
F8
20
20
20
20
20
F8
ENDCHAR
STARTCHAR Kappa
ENCODING 922
SWIDTH 1125 0
DWIDTH 9 0
BBX 7 7 0 0
BITMAP
84
88
90
B0
C8
84
82
ENDCHAR
STARTCHAR Lambda
ENCODING 923
SWIDTH 1125 0
DWIDTH 9 0
BBX 7 7 0 0
BITMAP
10
28
28
44
44
82
82
ENDCHAR
STARTCHAR Mu
ENCODING 924
SWIDTH 1125 0
DWIDTH 9 0
BBX 7 7 0 0
BITMAP
82
C6
AA
92
82
82
82
ENDCHAR
STARTCHAR Nu
ENCODING 925
SWIDTH 1125 0
DWIDTH 9 0
BBX 7 7 0 0
BITMAP
82
C2
A2
92
8A
86
82
ENDCHAR
STARTCHAR Xi
ENCODING 926
SWIDTH 1125 0
DWIDTH 9 0
BBX 7 7 0 0
BITMAP
FE
00
00
7C
00
00
FE
ENDCHAR
STARTCHAR Omicron
ENCODING 927
SWIDTH 1125 0
DWIDTH 9 0
BBX 7 7 0 0
BITMAP
38
44
82
82
82
44
38
ENDCHAR
STARTCHAR Pi
ENCODING 928
SWIDTH 1125 0
DWIDTH 9 0
BBX 7 7 0 0
BITMAP
FE
44
44
44
44
44
44
ENDCHAR
STARTCHAR Rho
ENCODING 929
SWIDTH 1125 0
DWIDTH 9 0
BBX 7 7 0 0
BITMAP
FC
82
82
FC
80
80
80
ENDCHAR
STARTCHAR Sigma
ENCODING 931
SWIDTH 1125 0
DWIDTH 9 0
BBX 7 7 0 0
BITMAP
FE
40
20
10
20
40
FE
ENDCHAR
STARTCHAR Tau
ENCODING 932
SWIDTH 1125 0
DWIDTH 9 0
BBX 7 7 0 0
BITMAP
FE
10
10
10
10
10
10
ENDCHAR
STARTCHAR Upsilon
ENCODING 933
SWIDTH 1125 0
DWIDTH 9 0
BBX 7 7 0 0
BITMAP
82
44
28
10
10
10
10
ENDCHAR
STARTCHAR Phi
ENCODING 934
SWIDTH 1125 0
DWIDTH 9 0
BBX 7 7 0 0
BITMAP
10
7C
92
92
92
7C
10
ENDCHAR
STARTCHAR Chi
ENCODING 935
SWIDTH 1125 0
DWIDTH 9 0
BBX 7 7 0 0
BITMAP
C6
44
28
10
28
44
C6
ENDCHAR
STARTCHAR Psi
ENCODING 936
SWIDTH 1125 0
DWIDTH 9 0
BBX 7 7 0 0
BITMAP
10
92
92
92
92
7C
10
ENDCHAR
STARTCHAR uni03A9
ENCODING 937
SWIDTH 1125 0
DWIDTH 9 0
BBX 7 7 0 0
BITMAP
38
44
82
82
44
28
EE
ENDCHAR
STARTCHAR Iotadieresis
ENCODING 938
SWIDTH 875 0
DWIDTH 7 0
BBX 5 9 0 0
BITMAP
50
00
F8
20
20
20
20
20
F8
ENDCHAR
STARTCHAR Upsilondieresis
ENCODING 939
SWIDTH 1125 0
DWIDTH 9 0
BBX 7 9 0 0
BITMAP
28
00
82
44
28
10
10
10
10
ENDCHAR
STARTCHAR alphatonos
ENCODING 940
SWIDTH 1000 0
DWIDTH 8 0
BBX 6 7 0 0
BITMAP
20
00
74
88
88
88
74
ENDCHAR
STARTCHAR epsilontonos
ENCODING 941
SWIDTH 875 0
DWIDTH 7 0
BBX 5 7 0 0
BITMAP
20
00
78
80
78
80
78
ENDCHAR
STARTCHAR etatonos
ENCODING 942
SWIDTH 1000 0
DWIDTH 8 0
BBX 6 8 0 -1
BITMAP
20
00
B8
44
44
44
44
04
ENDCHAR
STARTCHAR iotatonos
ENCODING 943
SWIDTH 500 0
DWIDTH 4 0
BBX 2 7 0 0
BITMAP
80
00
80
80
80
80
40
ENDCHAR
STARTCHAR upsilondieresistonos
ENCODING 944
SWIDTH 875 0
DWIDTH 7 0
BBX 5 8 0 0
BITMAP
20
70
00
88
88
88
88
70
ENDCHAR
STARTCHAR alpha
ENCODING 945
SWIDTH 1000 0
DWIDTH 8 0
BBX 6 5 0 0
BITMAP
74
88
88
88
74
ENDCHAR
STARTCHAR beta
ENCODING 946
SWIDTH 1000 0
DWIDTH 8 0
BBX 6 8 0 -1
BITMAP
78
84
84
F8
84
84
F8
80
ENDCHAR
STARTCHAR gamma
ENCODING 947
SWIDTH 1000 0
DWIDTH 8 0
BBX 6 6 0 -1
BITMAP
84
48
30
48
48
30
ENDCHAR
STARTCHAR delta
ENCODING 948
SWIDTH 1000 0
DWIDTH 8 0
BBX 6 7 0 0
BITMAP
7C
20
10
78
84
84
78
ENDCHAR
STARTCHAR epsilon
ENCODING 949
SWIDTH 875 0
DWIDTH 7 0
BBX 5 5 0 0
BITMAP
78
80
78
80
78
ENDCHAR
STARTCHAR zeta
ENCODING 950
SWIDTH 875 0
DWIDTH 7 0
BBX 5 8 0 -1
BITMAP
F8
10
20
40
40
30
08
70
ENDCHAR
STARTCHAR eta
ENCODING 951
SWIDTH 1000 0
DWIDTH 8 0
BBX 6 6 0 -1
BITMAP
B8
44
44
44
44
04
ENDCHAR
STARTCHAR theta
ENCODING 952
SWIDTH 875 0
DWIDTH 7 0
BBX 5 7 0 0
BITMAP
70
88
88
F8
88
88
70
ENDCHAR
STARTCHAR iota
ENCODING 953
SWIDTH 500 0
DWIDTH 4 0
BBX 2 5 0 0
BITMAP
80
80
80
80
40
ENDCHAR
STARTCHAR kappa
ENCODING 954
SWIDTH 1000 0
DWIDTH 8 0
BBX 6 5 0 0
BITMAP
8C
B0
C0
B0
8C
ENDCHAR
STARTCHAR lambda
ENCODING 955
SWIDTH 875 0
DWIDTH 7 0
BBX 5 7 0 0
BITMAP
70
08
08
78
88
88
88
ENDCHAR
STARTCHAR uni03BC
ENCODING 956
SWIDTH 1000 0
DWIDTH 8 0
BBX 6 6 0 -1
BITMAP
84
84
84
CC
B4
80
ENDCHAR
STARTCHAR nu
ENCODING 957
SWIDTH 875 0
DWIDTH 7 0
BBX 5 5 0 0
BITMAP
88
88
88
50
20
ENDCHAR
STARTCHAR xi
ENCODING 958
SWIDTH 1000 0
DWIDTH 8 0
BBX 6 8 0 -1
BITMAP
78
80
80
78
80
80
78
04
ENDCHAR
STARTCHAR omicron
ENCODING 959
SWIDTH 1000 0
DWIDTH 8 0
BBX 6 5 0 0
BITMAP
78
84
84
84
78
ENDCHAR
STARTCHAR pi
ENCODING 960
SWIDTH 1000 0
DWIDTH 8 0
BBX 6 5 0 0
BITMAP
FC
48
48
48
48
ENDCHAR
STARTCHAR rho
ENCODING 961
SWIDTH 1000 0
DWIDTH 8 0
BBX 6 6 0 -1
BITMAP
78
84
84
84
F8
80
ENDCHAR
STARTCHAR sigma1
ENCODING 962
SWIDTH 1000 0
DWIDTH 8 0
BBX 6 6 0 -1
BITMAP
78
80
80
80
78
04
ENDCHAR
STARTCHAR sigma
ENCODING 963
SWIDTH 1000 0
DWIDTH 8 0
BBX 6 5 0 0
BITMAP
7C
88
84
84
78
ENDCHAR
STARTCHAR tau
ENCODING 964
SWIDTH 875 0
DWIDTH 7 0
BBX 5 5 0 0
BITMAP
F8
20
20
20
18
ENDCHAR
STARTCHAR upsilon
ENCODING 965
SWIDTH 875 0
DWIDTH 7 0
BBX 5 5 0 0
BITMAP
88
88
88
88
70
ENDCHAR
STARTCHAR phi
ENCODING 966
SWIDTH 1000 0
DWIDTH 8 0
BBX 6 7 0 -1
BITMAP
20
78
A4
A4
A4
78
20
ENDCHAR
STARTCHAR chi
ENCODING 967
SWIDTH 1125 0
DWIDTH 9 0
BBX 7 5 0 0
BITMAP
C4
28
10
28
46
ENDCHAR
STARTCHAR psi
ENCODING 968
SWIDTH 1000 0
DWIDTH 8 0
BBX 6 7 0 -1
BITMAP
20
A4
A4
A4
A4
78
20
ENDCHAR
STARTCHAR omega
ENCODING 969
SWIDTH 1125 0
DWIDTH 9 0
BBX 7 5 0 0
BITMAP
44
92
92
92
6C
ENDCHAR
STARTCHAR iotadieresis
ENCODING 970
SWIDTH 625 0
DWIDTH 5 0
BBX 3 7 0 0
BITMAP
A0
00
40
40
40
40
20
ENDCHAR
STARTCHAR upsilondieresis
ENCODING 971
SWIDTH 875 0
DWIDTH 7 0
BBX 5 7 0 0
BITMAP
50
00
88
88
88
88
70
ENDCHAR
STARTCHAR omicrontonos
ENCODING 972
SWIDTH 1000 0
DWIDTH 8 0
BBX 6 7 0 0
BITMAP
20
00
78
84
84
84
78
ENDCHAR
STARTCHAR upsilontonos
ENCODING 973
SWIDTH 875 0
DWIDTH 7 0
BBX 5 7 0 0
BITMAP
20
00
88
88
88
88
70
ENDCHAR
STARTCHAR omegatonos
ENCODING 974
SWIDTH 1125 0
DWIDTH 9 0
BBX 7 7 0 0
BITMAP
10
00
44
92
92
92
6C
ENDCHAR
STARTCHAR uni0400
ENCODING 1024
SWIDTH 1125 0
DWIDTH 9 0
BBX 7 7 0 0
BITMAP
20
10
FE
80
FC
80
FE
ENDCHAR
STARTCHAR uni0401
ENCODING 1025
SWIDTH 1125 0
DWIDTH 9 0
BBX 7 7 0 0
BITMAP
28
00
FE
80
FC
80
FE
ENDCHAR
STARTCHAR uni0402
ENCODING 1026
SWIDTH 1125 0
DWIDTH 9 0
BBX 7 7 0 0
BITMAP
FC
20
2C
32
22
22
22
ENDCHAR
STARTCHAR uni0403
ENCODING 1027
SWIDTH 1125 0
DWIDTH 9 0
BBX 7 7 0 0
BITMAP
08
10
FE
80
80
80
80
ENDCHAR
STARTCHAR uni0404
ENCODING 1028
SWIDTH 1125 0
DWIDTH 9 0
BBX 7 7 0 0
BITMAP
3C
42
80
F8
80
42
3C
ENDCHAR
STARTCHAR uni0405
ENCODING 1029
SWIDTH 1125 0
DWIDTH 9 0
BBX 7 7 0 0
BITMAP
78
84
80
7C
02
82
7C
ENDCHAR
STARTCHAR uni0406
ENCODING 1030
SWIDTH 875 0
DWIDTH 7 0
BBX 5 7 0 0
BITMAP
F8
20
20
20
20
20
F8
ENDCHAR
STARTCHAR uni0407
ENCODING 1031
SWIDTH 875 0
DWIDTH 7 0
BBX 5 7 0 0
BITMAP
50
00
F8
20
20
20
F8
ENDCHAR
STARTCHAR uni0408
ENCODING 1032
SWIDTH 1125 0
DWIDTH 9 0
BBX 7 7 0 0
BITMAP
7E
08
08
08
88
88
70
ENDCHAR
STARTCHAR uni0409
ENCODING 1033
SWIDTH 1250 0
DWIDTH 10 0
BBX 8 7 0 0
BITMAP
78
48
48
4E
49
49
8E
ENDCHAR
STARTCHAR uni040A
ENCODING 1034
SWIDTH 1125 0
DWIDTH 9 0
BBX 7 7 0 0
BITMAP
90
90
90
FC
92
92
9C
ENDCHAR
STARTCHAR uni040B
ENCODING 1035
SWIDTH 1125 0
DWIDTH 9 0
BBX 7 7 0 0
BITMAP
FC
20
20
3C
22
22
22
ENDCHAR
STARTCHAR uni040C
ENCODING 1036
SWIDTH 1125 0
DWIDTH 9 0
BBX 7 7 0 0
BITMAP
92
A4
88
B0
C8
84
82
ENDCHAR
STARTCHAR uni040D
ENCODING 1037
SWIDTH 1125 0
DWIDTH 9 0
BBX 7 7 0 0
BITMAP
20
10
86
8A
92
A2
C2
ENDCHAR
STARTCHAR uni040E
ENCODING 1038
SWIDTH 1125 0
DWIDTH 9 0
BBX 7 7 0 0
BITMAP
28
92
44
28
10
20
C0
ENDCHAR
STARTCHAR uni040F
ENCODING 1039
SWIDTH 1125 0
DWIDTH 9 0
BBX 7 8 0 -1
BITMAP
82
82
82
82
82
82
FE
10
ENDCHAR
STARTCHAR uni0410
ENCODING 1040
SWIDTH 1125 0
DWIDTH 9 0
BBX 7 7 0 0
BITMAP
10
28
28
44
7C
82
82
ENDCHAR
STARTCHAR uni0411
ENCODING 1041
SWIDTH 1125 0
DWIDTH 9 0
BBX 7 7 0 0
BITMAP
FC
80
80
FC
82
82
FC
ENDCHAR
STARTCHAR uni0412
ENCODING 1042
SWIDTH 1125 0
DWIDTH 9 0
BBX 7 7 0 0
BITMAP
F8
84
84
FC
82
82
FC
ENDCHAR
STARTCHAR uni0413
ENCODING 1043
SWIDTH 1125 0
DWIDTH 9 0
BBX 7 7 0 0
BITMAP
FE
80
80
80
80
80
80
ENDCHAR
STARTCHAR uni0414
ENCODING 1044
SWIDTH 1125 0
DWIDTH 9 0
BBX 7 8 0 -1
BITMAP
7C
44
44
44
44
84
FE
82
ENDCHAR
STARTCHAR uni0415
ENCODING 1045
SWIDTH 1125 0
DWIDTH 9 0
BBX 7 7 0 0
BITMAP
FE
80
80
FC
80
80
FE
ENDCHAR
STARTCHAR uni0416
ENCODING 1046
SWIDTH 1125 0
DWIDTH 9 0
BBX 7 7 0 0
BITMAP
92
92
54
38
54
92
92
ENDCHAR
STARTCHAR uni0417
ENCODING 1047
SWIDTH 1125 0
DWIDTH 9 0
BBX 7 7 0 0
BITMAP
7C
82
02
3C
02
82
7C
ENDCHAR
STARTCHAR uni0418
ENCODING 1048
SWIDTH 1125 0
DWIDTH 9 0
BBX 7 7 0 0
BITMAP
82
86
8A
92
A2
C2
82
ENDCHAR
STARTCHAR uni0419
ENCODING 1049
SWIDTH 1125 0
DWIDTH 9 0
BBX 7 7 0 0
BITMAP
28
10
86
8A
92
A2
C2
ENDCHAR
STARTCHAR uni041A
ENCODING 1050
SWIDTH 1125 0
DWIDTH 9 0
BBX 7 7 0 0
BITMAP
84
88
90
B0
C8
84
82
ENDCHAR
STARTCHAR uni041B
ENCODING 1051
SWIDTH 1125 0
DWIDTH 9 0
BBX 7 7 0 0
BITMAP
7E
42
42
42
42
42
82
ENDCHAR
STARTCHAR uni041C
ENCODING 1052
SWIDTH 1125 0
DWIDTH 9 0
BBX 7 7 0 0
BITMAP
82
C6
AA
92
82
82
82
ENDCHAR
STARTCHAR uni041D
ENCODING 1053
SWIDTH 1125 0
DWIDTH 9 0
BBX 7 7 0 0
BITMAP
82
82
82
FE
82
82
82
ENDCHAR
STARTCHAR uni041E
ENCODING 1054
SWIDTH 1125 0
DWIDTH 9 0
BBX 7 7 0 0
BITMAP
38
44
82
82
82
44
38
ENDCHAR
STARTCHAR uni041F
ENCODING 1055
SWIDTH 1125 0
DWIDTH 9 0
BBX 7 7 0 0
BITMAP
FE
82
82
82
82
82
82
ENDCHAR
STARTCHAR uni0420
ENCODING 1056
SWIDTH 1125 0
DWIDTH 9 0
BBX 7 7 0 0
BITMAP
FC
82
82
FC
80
80
80
ENDCHAR
STARTCHAR uni0421
ENCODING 1057
SWIDTH 1125 0
DWIDTH 9 0
BBX 7 7 0 0
BITMAP
3C
42
80
80
80
42
3C
ENDCHAR
STARTCHAR uni0422
ENCODING 1058
SWIDTH 1125 0
DWIDTH 9 0
BBX 7 7 0 0
BITMAP
FE
10
10
10
10
10
10
ENDCHAR
STARTCHAR uni0423
ENCODING 1059
SWIDTH 1125 0
DWIDTH 9 0
BBX 7 7 0 0
BITMAP
82
82
44
28
10
20
C0
ENDCHAR
STARTCHAR uni0424
ENCODING 1060
SWIDTH 1125 0
DWIDTH 9 0
BBX 7 7 0 0
BITMAP
10
7C
92
92
92
7C
10
ENDCHAR
STARTCHAR uni0425
ENCODING 1061
SWIDTH 1125 0
DWIDTH 9 0
BBX 7 7 0 0
BITMAP
C6
44
28
10
28
44
C6
ENDCHAR
STARTCHAR uni0426
ENCODING 1062
SWIDTH 1125 0
DWIDTH 9 0
BBX 7 8 0 -1
BITMAP
84
84
84
84
84
84
FE
02
ENDCHAR
STARTCHAR uni0427
ENCODING 1063
SWIDTH 1125 0
DWIDTH 9 0
BBX 7 7 0 0
BITMAP
82
82
82
7E
02
02
02
ENDCHAR
STARTCHAR uni0428
ENCODING 1064
SWIDTH 1125 0
DWIDTH 9 0
BBX 7 7 0 0
BITMAP
92
92
92
92
92
92
FE
ENDCHAR
STARTCHAR uni0429
ENCODING 1065
SWIDTH 1375 0
DWIDTH 11 0
BBX 9 8 0 -1
BITMAP
9200
9200
9200
9200
9200
9200
FF00
0080
ENDCHAR
STARTCHAR uni042A
ENCODING 1066
SWIDTH 1125 0
DWIDTH 9 0
BBX 7 7 0 0
BITMAP
C0
40
40
7C
42
42
7C
ENDCHAR
STARTCHAR uni042B
ENCODING 1067
SWIDTH 1125 0
DWIDTH 9 0
BBX 7 7 0 0
BITMAP
82
82
82
F2
8A
8A
F2
ENDCHAR
STARTCHAR uni042C
ENCODING 1068
SWIDTH 1125 0
DWIDTH 9 0
BBX 7 7 0 0
BITMAP
80
80
80
FC
82
82
FC
ENDCHAR
STARTCHAR uni042D
ENCODING 1069
SWIDTH 1125 0
DWIDTH 9 0
BBX 7 7 0 0
BITMAP
78
84
02
3E
02
84
78
ENDCHAR
STARTCHAR uni042E
ENCODING 1070
SWIDTH 1125 0
DWIDTH 9 0
BBX 7 7 0 0
BITMAP
98
A4
C2
C2
C2
A4
98
ENDCHAR
STARTCHAR uni042F
ENCODING 1071
SWIDTH 1125 0
DWIDTH 9 0
BBX 7 7 0 0
BITMAP
7E
82
82
7E
22
42
82
ENDCHAR
STARTCHAR uni0430
ENCODING 1072
SWIDTH 1000 0
DWIDTH 8 0
BBX 6 5 0 0
BITMAP
70
08
78
88
7C
ENDCHAR
STARTCHAR uni0431
ENCODING 1073
SWIDTH 1000 0
DWIDTH 8 0
BBX 6 7 0 0
BITMAP
60
80
80
F8
84
84
78
ENDCHAR
STARTCHAR uni0432
ENCODING 1074
SWIDTH 875 0
DWIDTH 7 0
BBX 5 5 0 0
BITMAP
F0
88
F0
88
F0
ENDCHAR
STARTCHAR uni0433
ENCODING 1075
SWIDTH 875 0
DWIDTH 7 0
BBX 5 5 0 0
BITMAP
F8
80
80
80
80
ENDCHAR
STARTCHAR uni0434
ENCODING 1076
SWIDTH 1000 0
DWIDTH 8 0
BBX 6 6 0 -1
BITMAP
78
48
48
88
FC
84
ENDCHAR
STARTCHAR uni0435
ENCODING 1077
SWIDTH 1000 0
DWIDTH 8 0
BBX 6 5 0 0
BITMAP
78
84
FC
80
7C
ENDCHAR
STARTCHAR uni0436
ENCODING 1078
SWIDTH 875 0
DWIDTH 7 0
BBX 5 5 0 0
BITMAP
A8
A8
70
A8
A8
ENDCHAR
STARTCHAR uni0437
ENCODING 1079
SWIDTH 875 0
DWIDTH 7 0
BBX 5 5 0 0
BITMAP
F0
08
70
08
F0
ENDCHAR
STARTCHAR uni0438
ENCODING 1080
SWIDTH 875 0
DWIDTH 7 0
BBX 5 5 0 0
BITMAP
88
98
A8
C8
88
ENDCHAR
STARTCHAR uni0439
ENCODING 1081
SWIDTH 875 0
DWIDTH 7 0
BBX 5 7 0 0
BITMAP
50
20
88
98
A8
C8
88
ENDCHAR
STARTCHAR uni043A
ENCODING 1082
SWIDTH 875 0
DWIDTH 7 0
BBX 5 5 0 0
BITMAP
88
90
A0
D0
88
ENDCHAR
STARTCHAR uni043B
ENCODING 1083
SWIDTH 875 0
DWIDTH 7 0
BBX 5 5 0 0
BITMAP
78
48
48
48
88
ENDCHAR
STARTCHAR uni043C
ENCODING 1084
SWIDTH 875 0
DWIDTH 7 0
BBX 5 5 0 0
BITMAP
88
D8
A8
88
88
ENDCHAR
STARTCHAR uni043D
ENCODING 1085
SWIDTH 875 0
DWIDTH 7 0
BBX 5 5 0 0
BITMAP
88
88
F8
88
88
ENDCHAR
STARTCHAR uni043E
ENCODING 1086
SWIDTH 1000 0
DWIDTH 8 0
BBX 6 5 0 0
BITMAP
78
84
84
84
78
ENDCHAR
STARTCHAR uni043F
ENCODING 1087
SWIDTH 875 0
DWIDTH 7 0
BBX 5 5 0 0
BITMAP
F8
88
88
88
88
ENDCHAR
STARTCHAR uni0440
ENCODING 1088
SWIDTH 1000 0
DWIDTH 8 0
BBX 6 6 0 -1
BITMAP
F8
84
84
F8
80
80
ENDCHAR
STARTCHAR uni0441
ENCODING 1089
SWIDTH 1000 0
DWIDTH 8 0
BBX 6 5 0 0
BITMAP
78
84
80
84
78
ENDCHAR
STARTCHAR uni0442
ENCODING 1090
SWIDTH 875 0
DWIDTH 7 0
BBX 5 5 0 0
BITMAP
F8
20
20
20
20
ENDCHAR
STARTCHAR uni0443
ENCODING 1091
SWIDTH 875 0
DWIDTH 7 0
BBX 5 6 0 -1
BITMAP
88
88
88
78
08
F0
ENDCHAR
STARTCHAR uni0444
ENCODING 1092
SWIDTH 875 0
DWIDTH 7 0
BBX 5 7 0 -1
BITMAP
20
70
A8
A8
A8
70
20
ENDCHAR
STARTCHAR uni0445
ENCODING 1093
SWIDTH 1125 0
DWIDTH 9 0
BBX 7 5 0 0
BITMAP
C4
28
10
28
46
ENDCHAR
STARTCHAR uni0446
ENCODING 1094
SWIDTH 1000 0
DWIDTH 8 0
BBX 6 6 0 -1
BITMAP
88
88
88
88
FC
04
ENDCHAR
STARTCHAR uni0447
ENCODING 1095
SWIDTH 875 0
DWIDTH 7 0
BBX 5 5 0 0
BITMAP
88
88
78
08
08
ENDCHAR
STARTCHAR uni0448
ENCODING 1096
SWIDTH 875 0
DWIDTH 7 0
BBX 5 5 0 0
BITMAP
A8
A8
A8
A8
F8
ENDCHAR
STARTCHAR uni0449
ENCODING 1097
SWIDTH 1000 0
DWIDTH 8 0
BBX 6 6 0 -1
BITMAP
A8
A8
A8
A8
FC
04
ENDCHAR
STARTCHAR uni044A
ENCODING 1098
SWIDTH 1000 0
DWIDTH 8 0
BBX 6 5 0 0
BITMAP
C0
40
78
44
78
ENDCHAR
STARTCHAR uni044B
ENCODING 1099
SWIDTH 1000 0
DWIDTH 8 0
BBX 6 5 0 0
BITMAP
84
84
E4
94
E4
ENDCHAR
STARTCHAR uni044C
ENCODING 1100
SWIDTH 875 0
DWIDTH 7 0
BBX 5 5 0 0
BITMAP
80
80
F0
88
F0
ENDCHAR
STARTCHAR uni044D
ENCODING 1101
SWIDTH 875 0
DWIDTH 7 0
BBX 5 5 0 0
BITMAP
70
88
38
88
70
ENDCHAR
STARTCHAR uni044E
ENCODING 1102
SWIDTH 1000 0
DWIDTH 8 0
BBX 6 5 0 0
BITMAP
B8
C4
C4
C4
B8
ENDCHAR
STARTCHAR uni044F
ENCODING 1103
SWIDTH 875 0
DWIDTH 7 0
BBX 5 5 0 0
BITMAP
78
88
78
48
88
ENDCHAR
STARTCHAR uni0450
ENCODING 1104
SWIDTH 1000 0
DWIDTH 8 0
BBX 6 7 0 0
BITMAP
20
10
78
84
FC
80
7C
ENDCHAR
STARTCHAR uni0451
ENCODING 1105
SWIDTH 1000 0
DWIDTH 8 0
BBX 6 7 0 0
BITMAP
50
00
78
84
FC
80
7C
ENDCHAR
STARTCHAR uni0452
ENCODING 1106
SWIDTH 1000 0
DWIDTH 8 0
BBX 6 8 0 -1
BITMAP
40
40
F0
58
64
44
44
08
ENDCHAR
STARTCHAR uni0453
ENCODING 1107
SWIDTH 875 0
DWIDTH 7 0
BBX 5 7 0 0
BITMAP
10
20
F8
80
80
80
80
ENDCHAR
STARTCHAR uni0454
ENCODING 1108
SWIDTH 875 0
DWIDTH 7 0
BBX 5 5 0 0
BITMAP
70
88
E0
88
70
ENDCHAR
STARTCHAR uni0455
ENCODING 1109
SWIDTH 1000 0
DWIDTH 8 0
BBX 6 5 0 0
BITMAP
78
80
78
04
F8
ENDCHAR
STARTCHAR uni0456
ENCODING 1110
SWIDTH 375 0
DWIDTH 3 0
BBX 1 6 0 0
BITMAP
80
00
80
80
80
80
ENDCHAR
STARTCHAR uni0457
ENCODING 1111
SWIDTH 625 0
DWIDTH 5 0
BBX 3 6 0 0
BITMAP
A0
00
40
40
40
40
ENDCHAR
STARTCHAR uni0458
ENCODING 1112
SWIDTH 625 0
DWIDTH 5 0
BBX 3 7 0 -1
BITMAP
20
00
20
20
20
20
C0
ENDCHAR
STARTCHAR uni0459
ENCODING 1113
SWIDTH 1000 0
DWIDTH 8 0
BBX 6 5 0 0
BITMAP
70
50
58
54
98
ENDCHAR
STARTCHAR uni045A
ENCODING 1114
SWIDTH 1000 0
DWIDTH 8 0
BBX 6 5 0 0
BITMAP
A0
A0
F8
A4
B8
ENDCHAR
STARTCHAR uni045B
ENCODING 1115
SWIDTH 1000 0
DWIDTH 8 0
BBX 6 7 0 0
BITMAP
40
40
F0
58
64
44
44
ENDCHAR
STARTCHAR uni045C
ENCODING 1116
SWIDTH 875 0
DWIDTH 7 0
BBX 5 7 0 0
BITMAP
10
20
88
90
A0
D0
88
ENDCHAR
STARTCHAR uni045D
ENCODING 1117
SWIDTH 875 0
DWIDTH 7 0
BBX 5 7 0 0
BITMAP
40
20
88
98
A8
C8
88
ENDCHAR
STARTCHAR uni045E
ENCODING 1118
SWIDTH 875 0
DWIDTH 7 0
BBX 5 8 0 -1
BITMAP
50
20
88
88
88
78
08
F0
ENDCHAR
STARTCHAR uni045F
ENCODING 1119
SWIDTH 875 0
DWIDTH 7 0
BBX 5 6 0 -1
BITMAP
88
88
88
88
F8
20
ENDCHAR
STARTCHAR uni0490
ENCODING 1168
SWIDTH 1125 0
DWIDTH 9 0
BBX 7 7 0 0
BITMAP
02
FE
80
80
80
80
80
ENDCHAR
STARTCHAR uni0491
ENCODING 1169
SWIDTH 875 0
DWIDTH 7 0
BBX 5 6 0 0
BITMAP
08
F8
80
80
80
80
ENDCHAR
STARTCHAR uni1100
ENCODING 4352
SWIDTH 250 0
DWIDTH 2 0
BBX 1 1 0 0
BITMAP
00
ENDCHAR
STARTCHAR uni1101
ENCODING 4353
SWIDTH 250 0
DWIDTH 2 0
BBX 1 1 0 0
BITMAP
00
ENDCHAR
STARTCHAR uni1102
ENCODING 4354
SWIDTH 250 0
DWIDTH 2 0
BBX 1 1 0 0
BITMAP
00
ENDCHAR
STARTCHAR uni1103
ENCODING 4355
SWIDTH 250 0
DWIDTH 2 0
BBX 1 1 0 0
BITMAP
00
ENDCHAR
STARTCHAR uni1104
ENCODING 4356
SWIDTH 250 0
DWIDTH 2 0
BBX 1 1 0 0
BITMAP
00
ENDCHAR
STARTCHAR uni1105
ENCODING 4357
SWIDTH 250 0
DWIDTH 2 0
BBX 1 1 0 0
BITMAP
00
ENDCHAR
STARTCHAR uni1106
ENCODING 4358
SWIDTH 250 0
DWIDTH 2 0
BBX 1 1 0 0
BITMAP
00
ENDCHAR
STARTCHAR uni1107
ENCODING 4359
SWIDTH 250 0
DWIDTH 2 0
BBX 1 1 0 0
BITMAP
00
ENDCHAR
STARTCHAR uni1108
ENCODING 4360
SWIDTH 250 0
DWIDTH 2 0
BBX 1 1 0 0
BITMAP
00
ENDCHAR
STARTCHAR uni1109
ENCODING 4361
SWIDTH 250 0
DWIDTH 2 0
BBX 1 1 0 0
BITMAP
00
ENDCHAR
STARTCHAR uni110A
ENCODING 4362
SWIDTH 250 0
DWIDTH 2 0
BBX 1 1 0 0
BITMAP
00
ENDCHAR
STARTCHAR uni110B
ENCODING 4363
SWIDTH 250 0
DWIDTH 2 0
BBX 1 1 0 0
BITMAP
00
ENDCHAR
STARTCHAR uni110C
ENCODING 4364
SWIDTH 250 0
DWIDTH 2 0
BBX 1 1 0 0
BITMAP
00
ENDCHAR
STARTCHAR uni110D
ENCODING 4365
SWIDTH 250 0
DWIDTH 2 0
BBX 1 1 0 0
BITMAP
00
ENDCHAR
STARTCHAR uni110E
ENCODING 4366
SWIDTH 250 0
DWIDTH 2 0
BBX 1 1 0 0
BITMAP
00
ENDCHAR
STARTCHAR quoteleft
ENCODING 8216
SWIDTH 500 0
DWIDTH 4 0
BBX 2 4 0 3
BITMAP
40
80
C0
C0
ENDCHAR
STARTCHAR quoteright
ENCODING 8217
SWIDTH 500 0
DWIDTH 4 0
BBX 2 4 0 3
BITMAP
C0
C0
40
80
ENDCHAR
STARTCHAR quotedblleft
ENCODING 8220
SWIDTH 875 0
DWIDTH 7 0
BBX 5 4 0 3
BITMAP
48
90
D8
D8
ENDCHAR
STARTCHAR quotedblright
ENCODING 8221
SWIDTH 875 0
DWIDTH 7 0
BBX 5 4 0 3
BITMAP
D8
D8
48
90
ENDCHAR
STARTCHAR dagger
ENCODING 8224
SWIDTH 875 0
DWIDTH 7 0
BBX 5 8 0 0
BITMAP
20
20
F8
20
20
20
20
20
ENDCHAR
STARTCHAR Euro
ENCODING 8364
SWIDTH 875 0
DWIDTH 7 0
BBX 5 7 0 0
BITMAP
F8
88
88
88
88
88
F8
ENDCHAR
STARTCHAR trademark
ENCODING 8482
SWIDTH 1625 0
DWIDTH 13 0
BBX 11 4 0 3
BITMAP
FA20
2360
22A0
2220
ENDCHAR
STARTCHAR uni2160
ENCODING 8544
SWIDTH 750 0
DWIDTH 6 0
BBX 3 7 1 0
BITMAP
E0
40
40
40
40
40
E0
ENDCHAR
STARTCHAR uni2161
ENCODING 8545
SWIDTH 1000 0
DWIDTH 8 0
BBX 5 7 1 0
BITMAP
F8
50
50
50
50
50
F8
ENDCHAR
STARTCHAR uni2162
ENCODING 8546
SWIDTH 1250 0
DWIDTH 10 0
BBX 7 7 1 0
BITMAP
FE
54
54
54
54
54
FE
ENDCHAR
STARTCHAR uni2163
ENCODING 8547
SWIDTH 1625 0
DWIDTH 13 0
BBX 10 7 1 0
BITMAP
F040
5040
4880
4880
4500
4500
E200
ENDCHAR
STARTCHAR uni2164
ENCODING 8548
SWIDTH 1250 0
DWIDTH 10 0
BBX 7 7 1 0
BITMAP
82
82
44
44
28
28
10
ENDCHAR
STARTCHAR uni2165
ENCODING 8549
SWIDTH 1625 0
DWIDTH 13 0
BBX 10 7 1 0
BITMAP
83C0
8280
4480
4480
2880
2880
11C0
ENDCHAR
STARTCHAR uni2166
ENCODING 8550
SWIDTH 1875 0
DWIDTH 15 0
BBX 12 7 1 0
BITMAP
83F0
82A0
44A0
44A0
28A0
28A0
11F0
ENDCHAR
STARTCHAR uni2167
ENCODING 8551
SWIDTH 2125 0
DWIDTH 17 0
BBX 14 7 1 0
BITMAP
83FC
82A8
44A8
44A8
28A8
28A8
11FC
ENDCHAR
STARTCHAR uni2168
ENCODING 8552
SWIDTH 1500 0
DWIDTH 12 0
BBX 9 7 1 0
BITMAP
F180
5100
4A00
4400
4A00
5100
F180
ENDCHAR
STARTCHAR uni2169
ENCODING 8553
SWIDTH 1250 0
DWIDTH 10 0
BBX 7 7 1 0
BITMAP
C6
44
28
10
28
44
C6
ENDCHAR
STARTCHAR uni216A
ENCODING 8554
SWIDTH 1500 0
DWIDTH 12 0
BBX 9 7 1 0
BITMAP
C780
4500
2900
1100
2900
4500
C780
ENDCHAR
STARTCHAR uni216B
ENCODING 8555
SWIDTH 1750 0
DWIDTH 14 0
BBX 11 7 1 0
BITMAP
C7E0
4540
2940
1140
2940
4540
C7E0
ENDCHAR
STARTCHAR uni2170
ENCODING 8560
SWIDTH 500 0
DWIDTH 4 0
BBX 1 6 1 0
BITMAP
80
00
80
80
80
80
ENDCHAR
STARTCHAR uni2171
ENCODING 8561
SWIDTH 750 0
DWIDTH 6 0
BBX 3 6 1 0
BITMAP
A0
00
A0
A0
A0
A0
ENDCHAR
STARTCHAR uni2172
ENCODING 8562
SWIDTH 1000 0
DWIDTH 8 0
BBX 5 6 1 0
BITMAP
A8
00
A8
A8
A8
A8
ENDCHAR
STARTCHAR uni2173
ENCODING 8563
SWIDTH 1250 0
DWIDTH 10 0
BBX 7 6 1 0
BITMAP
80
00
A2
A2
94
88
ENDCHAR
STARTCHAR uni2174
ENCODING 8564
SWIDTH 1000 0
DWIDTH 8 0
BBX 5 4 1 0
BITMAP
88
88
50
20
ENDCHAR
STARTCHAR uni2175
ENCODING 8565
SWIDTH 1250 0
DWIDTH 10 0
BBX 7 6 1 0
BITMAP
02
00
8A
8A
52
22
ENDCHAR
STARTCHAR uni2176
ENCODING 8566
SWIDTH 1500 0
DWIDTH 12 0
BBX 9 6 1 0
BITMAP
0280
0000
8A80
8A80
5280
2280
ENDCHAR
STARTCHAR uni2177
ENCODING 8567
SWIDTH 1750 0
DWIDTH 14 0
BBX 11 6 1 0
BITMAP
02A0
0000
8AA0
8AA0
52A0
22A0
ENDCHAR
STARTCHAR uni2178
ENCODING 8568
SWIDTH 1500 0
DWIDTH 12 0
BBX 9 6 1 0
BITMAP
8000
3100
8A00
8400
8A00
9180
ENDCHAR
STARTCHAR uni2179
ENCODING 8569
SWIDTH 1250 0
DWIDTH 10 0
BBX 7 5 1 0
BITMAP
C4
28
10
28
46
ENDCHAR
STARTCHAR uni217A
ENCODING 8570
SWIDTH 1500 0
DWIDTH 12 0
BBX 9 6 1 0
BITMAP
0080
C400
2880
1080
2880
4680
ENDCHAR
STARTCHAR uni217B
ENCODING 8571
SWIDTH 1750 0
DWIDTH 14 0
BBX 11 6 1 0
BITMAP
00A0
C400
28A0
10A0
28A0
46A0
ENDCHAR
STARTCHAR arrowleft
ENCODING 8592
SWIDTH 1125 0
DWIDTH 9 0
BBX 7 5 0 0
BITMAP
20
40
FE
40
20
ENDCHAR
STARTCHAR arrowup
ENCODING 8593
SWIDTH 875 0
DWIDTH 7 0
BBX 5 7 0 0
BITMAP
20
70
A8
20
20
20
20
ENDCHAR
STARTCHAR arrowright
ENCODING 8594
SWIDTH 1125 0
DWIDTH 9 0
BBX 7 5 0 0
BITMAP
08
04
FE
04
08
ENDCHAR
STARTCHAR arrowdown
ENCODING 8595
SWIDTH 875 0
DWIDTH 7 0
BBX 5 7 0 0
BITMAP
20
20
20
20
A8
70
20
ENDCHAR
STARTCHAR arrowboth
ENCODING 8596
SWIDTH 1250 0
DWIDTH 10 0
BBX 8 5 0 0
BITMAP
24
42
FF
42
24
ENDCHAR
STARTCHAR arrowupdn
ENCODING 8597
SWIDTH 875 0
DWIDTH 7 0
BBX 5 8 0 0
BITMAP
20
70
A8
20
20
A8
70
20
ENDCHAR
STARTCHAR female
ENCODING 9792
SWIDTH 875 0
DWIDTH 7 0
BBX 5 8 0 0
BITMAP
70
88
88
70
20
F8
20
20
ENDCHAR
STARTCHAR male
ENCODING 9794
SWIDTH 1125 0
DWIDTH 9 0
BBX 7 8 0 0
BITMAP
10
38
54
92
38
44
44
38
ENDCHAR
STARTCHAR uni3041
ENCODING 12353
SWIDTH 1125 0
DWIDTH 9 0
BBX 7 7 0 0
BITMAP
20
FC
20
76
AA
92
64
ENDCHAR
STARTCHAR uni3042
ENCODING 12354
SWIDTH 1125 0
DWIDTH 9 0
BBX 7 8 0 0
BITMAP
20
FC
20
3C
66
AA
92
64
ENDCHAR
STARTCHAR uni3043
ENCODING 12355
SWIDTH 1125 0
DWIDTH 9 0
BBX 7 6 0 0
BITMAP
84
82
82
82
50
20
ENDCHAR
STARTCHAR uni3044
ENCODING 12356
SWIDTH 1125 0
DWIDTH 9 0
BBX 7 7 0 0
BITMAP
84
82
82
82
82
50
20
ENDCHAR
STARTCHAR uni3045
ENCODING 12357
SWIDTH 875 0
DWIDTH 7 0
BBX 5 6 0 0
BITMAP
F0
00
70
88
10
60
ENDCHAR
STARTCHAR uni3046
ENCODING 12358
SWIDTH 875 0
DWIDTH 7 0
BBX 5 8 0 0
BITMAP
F0
00
70
88
08
08
10
60
ENDCHAR
STARTCHAR uni3047
ENCODING 12359
SWIDTH 1125 0
DWIDTH 9 0
BBX 7 7 0 0
BITMAP
30
00
7C
08
38
48
86
ENDCHAR
STARTCHAR uni3048
ENCODING 12360
SWIDTH 1125 0
DWIDTH 9 0
BBX 7 8 0 0
BITMAP
30
00
7C
08
10
38
48
86
ENDCHAR
STARTCHAR uni3049
ENCODING 12361
SWIDTH 1125 0
DWIDTH 9 0
BBX 7 7 0 0
BITMAP
22
FA
20
3C
62
A2
64
ENDCHAR
STARTCHAR uni304A
ENCODING 12362
SWIDTH 1125 0
DWIDTH 9 0
BBX 7 8 0 0
BITMAP
22
FA
20
3C
62
A2
A2
64
ENDCHAR
STARTCHAR uni304B
ENCODING 12363
SWIDTH 1125 0
DWIDTH 9 0
BBX 7 8 0 0
BITMAP
40
44
F2
4A
48
88
08
30
ENDCHAR
STARTCHAR uni304C
ENCODING 12364
SWIDTH 1500 0
DWIDTH 12 0
BBX 10 10 0 0
BITMAP
0080
0240
4100
4400
F200
4A00
4800
8800
0800
3000
ENDCHAR
STARTCHAR uni304D
ENCODING 12365
SWIDTH 1125 0
DWIDTH 9 0
BBX 7 8 0 0
BITMAP
10
FE
08
FE
04
8C
80
7C
ENDCHAR
STARTCHAR uni304E
ENCODING 12366
SWIDTH 1500 0
DWIDTH 12 0
BBX 10 10 0 0
BITMAP
0080
0240
1100
FE00
0800
FE00
0400
8C00
8000
7C00
ENDCHAR
STARTCHAR uni304F
ENCODING 12367
SWIDTH 750 0
DWIDTH 6 0
BBX 4 8 0 0
BITMAP
10
20
40
80
80
40
20
10
ENDCHAR
STARTCHAR uni3050
ENCODING 12368
SWIDTH 1250 0
DWIDTH 10 0
BBX 8 8 0 0
BITMAP
10
22
49
84
80
40
20
10
ENDCHAR
STARTCHAR uni3051
ENCODING 12369
SWIDTH 1125 0
DWIDTH 9 0
BBX 7 8 0 0
BITMAP
04
84
9E
84
84
84
84
08
ENDCHAR
STARTCHAR uni3052
ENCODING 12370
SWIDTH 1375 0
DWIDTH 11 0
BBX 9 11 0 0
BITMAP
0100
0480
0200
0400
8400
9E00
8400
8400
8400
8400
0800
ENDCHAR
STARTCHAR uni3053
ENCODING 12371
SWIDTH 1125 0
DWIDTH 9 0
BBX 7 7 0 0
BITMAP
7C
02
00
00
00
80
7E
ENDCHAR
STARTCHAR uni3054
ENCODING 12372
SWIDTH 1500 0
DWIDTH 12 0
BBX 10 10 0 0
BITMAP
0080
0240
0100
7C00
0200
0000
0000
0000
8000
7E00
ENDCHAR
STARTCHAR uni3055
ENCODING 12373
SWIDTH 1125 0
DWIDTH 9 0
BBX 7 8 0 0
BITMAP
20
10
FE
08
7C
80
80
7C
ENDCHAR
STARTCHAR uni3056
ENCODING 12374
SWIDTH 1375 0
DWIDTH 11 0
BBX 9 10 0 0
BITMAP
0100
0480
2200
1000
FE00
0800
7C00
8000
8000
7C00
ENDCHAR
STARTCHAR uni3057
ENCODING 12375
SWIDTH 875 0
DWIDTH 7 0
BBX 5 8 0 0
BITMAP
80
80
80
80
80
88
88
70
ENDCHAR
STARTCHAR uni3058
ENCODING 12376
SWIDTH 1000 0
DWIDTH 8 0
BBX 6 10 0 0
BITMAP
08
24
90
80
80
80
80
88
88
70
ENDCHAR
STARTCHAR uni3059
ENCODING 12377
SWIDTH 1125 0
DWIDTH 9 0
BBX 7 8 0 0
BITMAP
04
FE
04
3C
44
3C
04
18
ENDCHAR
STARTCHAR uni305A
ENCODING 12378
SWIDTH 1500 0
DWIDTH 12 0
BBX 10 11 0 0
BITMAP
0080
0240
0100
0400
FE00
0400
3C00
4400
3C00
0400
1800
ENDCHAR
STARTCHAR uni305B
ENCODING 12379
SWIDTH 1125 0
DWIDTH 9 0
BBX 7 8 0 0
BITMAP
44
44
FE
44
44
48
40
3C
ENDCHAR
STARTCHAR uni305C
ENCODING 12380
SWIDTH 1500 0
DWIDTH 12 0
BBX 10 11 0 0
BITMAP
0080
0240
0100
4400
4400
FE00
4400
4400
4800
4000
3C00
ENDCHAR
STARTCHAR uni305D
ENCODING 12381
SWIDTH 1125 0
DWIDTH 9 0
BBX 7 8 0 0
BITMAP
7C
10
20
FE
10
20
20
1C
ENDCHAR
STARTCHAR uni305E
ENCODING 12382
SWIDTH 1500 0
DWIDTH 12 0
BBX 10 11 0 0
BITMAP
0080
0240
0100
7C00
1000
2000
FE00
1000
2000
2000
1C00
ENDCHAR
STARTCHAR uni305F
ENCODING 12383
SWIDTH 1125 0
DWIDTH 9 0
BBX 7 8 0 0
BITMAP
20
20
FC
40
5E
40
90
8E
ENDCHAR
STARTCHAR uni3060
ENCODING 12384
SWIDTH 1500 0
DWIDTH 12 0
BBX 10 9 0 0
BITMAP
0080
2240
2100
FC00
4000
5E00
4000
9000
8E00
ENDCHAR
STARTCHAR uni3061
ENCODING 12385
SWIDTH 1125 0
DWIDTH 9 0
BBX 7 8 0 0
BITMAP
20
20
FC
40
7C
42
02
1C
ENDCHAR
STARTCHAR uni3062
ENCODING 12386
SWIDTH 1250 0
DWIDTH 10 0
BBX 8 10 0 0
BITMAP
02
09
24
20
FC
40
7C
42
02
1C
ENDCHAR
STARTCHAR uni3063
ENCODING 12387
SWIDTH 875 0
DWIDTH 7 0
BBX 5 5 0 0
BITMAP
F0
08
08
10
60
ENDCHAR
STARTCHAR uni3064
ENCODING 12388
SWIDTH 1000 0
DWIDTH 8 0
BBX 6 6 0 0
BITMAP
F8
04
04
04
08
70
ENDCHAR
STARTCHAR uni3065
ENCODING 12389
SWIDTH 1250 0
DWIDTH 10 0
BBX 8 10 0 0
BITMAP
02
09
04
00
F8
04
04
04
08
70
ENDCHAR
STARTCHAR uni3066
ENCODING 12390
SWIDTH 1125 0
DWIDTH 9 0
BBX 7 7 0 0
BITMAP
FE
0C
10
20
20
10
0C
ENDCHAR
STARTCHAR uni3067
ENCODING 12391
SWIDTH 1375 0
DWIDTH 11 0
BBX 9 7 0 0
BITMAP
FE00
0C00
1100
2480
2200
1000
0C00
ENDCHAR
STARTCHAR uni3068
ENCODING 12392
SWIDTH 1125 0
DWIDTH 9 0
BBX 7 8 0 0
BITMAP
20
20
2C
30
40
80
80
7E
ENDCHAR
STARTCHAR uni3069
ENCODING 12393
SWIDTH 1250 0
DWIDTH 10 0
BBX 8 10 0 0
BITMAP
02
09
24
20
2C
30
40
80
80
7E
ENDCHAR
STARTCHAR uni306A
ENCODING 12394
SWIDTH 1125 0
DWIDTH 9 0
BBX 7 8 0 0
BITMAP
20
24
F2
40
84
3C
46
38
ENDCHAR
STARTCHAR uni306B
ENCODING 12395
SWIDTH 1125 0
DWIDTH 9 0
BBX 7 7 0 0
BITMAP
9E
80
80
80
A0
A0
9E
ENDCHAR
STARTCHAR uni306C
ENCODING 12396
SWIDTH 1125 0
DWIDTH 9 0
BBX 7 8 0 0
BITMAP
08
48
5C
6A
D2
A6
AA
4E
ENDCHAR
STARTCHAR uni306D
ENCODING 12397
SWIDTH 1125 0
DWIDTH 9 0
BBX 7 8 0 0
BITMAP
20
20
EC
32
22
66
AA
2E
ENDCHAR
STARTCHAR uni306E
ENCODING 12398
SWIDTH 1125 0
DWIDTH 9 0
BBX 7 7 0 0
BITMAP
38
54
92
92
92
92
64
ENDCHAR
STARTCHAR uni306F
ENCODING 12399
SWIDTH 1125 0
DWIDTH 9 0
BBX 7 8 0 0
BITMAP
04
9E
84
84
9C
A6
A4
98
ENDCHAR
STARTCHAR uni3070
ENCODING 12400
SWIDTH 1500 0
DWIDTH 12 0
BBX 10 11 0 0
BITMAP
0080
0240
0100
0400
9E00
8400
8400
9C00
A600
A400
9800
ENDCHAR
STARTCHAR uni3071
ENCODING 12401
SWIDTH 1375 0
DWIDTH 11 0
BBX 9 11 0 0
BITMAP
0100
0280
0100
0400
9E00
8400
8400
9C00
A600
A400
9800
ENDCHAR
STARTCHAR uni3072
ENCODING 12402
SWIDTH 1125 0
DWIDTH 9 0
BBX 7 7 0 0
BITMAP
F0
24
46
44
8C
88
70
ENDCHAR
STARTCHAR uni3073
ENCODING 12403
SWIDTH 1375 0
DWIDTH 11 0
BBX 9 10 0 0
BITMAP
0100
0480
0200
F000
2400
4600
4400
8C00
8800
7000
ENDCHAR
STARTCHAR uni3074
ENCODING 12404
SWIDTH 1250 0
DWIDTH 10 0
BBX 8 10 0 0
BITMAP
02
05
02
F0
24
46
44
8C
88
70
ENDCHAR
STARTCHAR uni3075
ENCODING 12405
SWIDTH 1125 0
DWIDTH 9 0
BBX 7 7 0 0
BITMAP
38
08
10
48
8A
8A
30
ENDCHAR
STARTCHAR uni3076
ENCODING 12406
SWIDTH 1375 0
DWIDTH 11 0
BBX 9 10 0 0
BITMAP
0100
0480
0200
3800
0800
1000
4800
8A00
8A00
3000
ENDCHAR
STARTCHAR uni3077
ENCODING 12407
SWIDTH 1250 0
DWIDTH 10 0
BBX 8 10 0 0
BITMAP
02
05
02
38
08
10
48
8A
8A
30
ENDCHAR
STARTCHAR uni3078
ENCODING 12408
SWIDTH 1125 0
DWIDTH 9 0
BBX 7 5 0 0
BITMAP
20
50
88
04
02
ENDCHAR
STARTCHAR uni3079
ENCODING 12409
SWIDTH 1125 0
DWIDTH 9 0
BBX 7 8 0 0
BITMAP
04
12
08
20
50
88
04
02
ENDCHAR
STARTCHAR uni307A
ENCODING 12410
SWIDTH 1125 0
DWIDTH 9 0
BBX 7 8 0 0
BITMAP
08
14
08
20
50
88
04
02
ENDCHAR
STARTCHAR uni307B
ENCODING 12411
SWIDTH 1125 0
DWIDTH 9 0
BBX 7 8 0 0
BITMAP
1E
84
9E
84
9C
A6
A4
98
ENDCHAR
STARTCHAR uni307C
ENCODING 12412
SWIDTH 1500 0
DWIDTH 12 0
BBX 10 11 0 0
BITMAP
0080
0240
0100
1E00
8400
9E00
8400
9C00
A600
A400
9800
ENDCHAR
STARTCHAR uni307D
ENCODING 12413
SWIDTH 1375 0
DWIDTH 11 0
BBX 9 11 0 0
BITMAP
0100
0280
0100
1E00
8400
9E00
8400
9C00
A600
A400
9800
ENDCHAR
STARTCHAR uni307E
ENCODING 12414
SWIDTH 1000 0
DWIDTH 8 0
BBX 6 8 0 0
BITMAP
08
7C
08
7C
08
78
8C
78
ENDCHAR
STARTCHAR uni307F
ENCODING 12415
SWIDTH 1125 0
DWIDTH 9 0
BBX 7 8 0 0
BITMAP
70
10
14
7E
94
A4
A4
48
ENDCHAR
STARTCHAR uni3080
ENCODING 12416
SWIDTH 1125 0
DWIDTH 9 0
BBX 7 8 0 0
BITMAP
20
E2
22
60
A0
A2
62
3C
ENDCHAR
STARTCHAR uni3081
ENCODING 12417
SWIDTH 1125 0
DWIDTH 9 0
BBX 7 8 0 0
BITMAP
08
48
58
6C
AA
92
B2
44
ENDCHAR
STARTCHAR uni3082
ENCODING 12418
SWIDTH 1125 0
DWIDTH 9 0
BBX 7 8 0 0
BITMAP
20
20
F8
20
F8
20
22
1C
ENDCHAR
STARTCHAR uni3083
ENCODING 12419
SWIDTH 1000 0
DWIDTH 8 0
BBX 6 6 0 0
BITMAP
50
78
D4
44
28
20
ENDCHAR
STARTCHAR uni3084
ENCODING 12420
SWIDTH 1125 0
DWIDTH 9 0
BBX 7 8 0 0
BITMAP
48
48
FC
42
52
4C
20
20
ENDCHAR
STARTCHAR uni3085
ENCODING 12421
SWIDTH 1000 0
DWIDTH 8 0
BBX 6 6 0 0
BITMAP
10
B8
D4
94
38
10
ENDCHAR
STARTCHAR uni3086
ENCODING 12422
SWIDTH 1125 0
DWIDTH 9 0
BBX 7 8 0 0
BITMAP
08
BC
CA
8A
8A
AA
1C
20
ENDCHAR
STARTCHAR uni3087
ENCODING 12423
SWIDTH 875 0
DWIDTH 7 0
BBX 5 6 0 0
BITMAP
10
18
10
70
98
70
ENDCHAR
STARTCHAR uni3088
ENCODING 12424
SWIDTH 1125 0
DWIDTH 9 0
BBX 7 8 0 0
BITMAP
08
08
0E
08
08
FC
8A
70
ENDCHAR
STARTCHAR uni3089
ENCODING 12425
SWIDTH 1000 0
DWIDTH 8 0
BBX 6 8 0 0
BITMAP
60
18
80
B8
C4
04
04
78
ENDCHAR
STARTCHAR uni308A
ENCODING 12426
SWIDTH 875 0
DWIDTH 7 0
BBX 5 8 0 0
BITMAP
88
88
88
88
88
08
10
60
ENDCHAR
STARTCHAR uni308B
ENCODING 12427
SWIDTH 1125 0
DWIDTH 9 0
BBX 7 8 0 0
BITMAP
7C
08
30
7C
82
32
4A
3C
ENDCHAR
STARTCHAR uni308C
ENCODING 12428
SWIDTH 1125 0
DWIDTH 9 0
BBX 7 8 0 0
BITMAP
20
20
EC
32
22
64
A4
22
ENDCHAR
STARTCHAR uni308D
ENCODING 12429
SWIDTH 1125 0
DWIDTH 9 0
BBX 7 8 0 0
BITMAP
7C
08
30
7C
82
02
02
3C
ENDCHAR
STARTCHAR uni308E
ENCODING 12430
SWIDTH 1125 0
DWIDTH 9 0
BBX 7 7 0 0
BITMAP
20
20
EC
B2
22
62
A4
ENDCHAR
STARTCHAR uni308F
ENCODING 12431
SWIDTH 1125 0
DWIDTH 9 0
BBX 7 8 0 0
BITMAP
20
20
EC
B2
22
62
A2
24
ENDCHAR
STARTCHAR uni3092
ENCODING 12434
SWIDTH 875 0
DWIDTH 7 0
BBX 5 8 0 0
BITMAP
20
F0
40
68
B0
50
40
38
ENDCHAR
STARTCHAR uni3093
ENCODING 12435
SWIDTH 1125 0
DWIDTH 9 0
BBX 7 8 0 0
BITMAP
10
10
20
20
70
48
88
86
ENDCHAR
STARTCHAR uni3094
ENCODING 12436
SWIDTH 1375 0
DWIDTH 11 0
BBX 9 9 0 0
BITMAP
0100
F480
0200
7000
8800
0800
0800
1000
6000
ENDCHAR
STARTCHAR uni3099
ENCODING 12441
SWIDTH 750 0
DWIDTH 6 0
BBX 4 3 0 5
BITMAP
20
90
40
ENDCHAR
STARTCHAR uni309A
ENCODING 12442
SWIDTH 625 0
DWIDTH 5 0
BBX 3 3 0 5
BITMAP
E0
A0
E0
ENDCHAR
STARTCHAR uni309B
ENCODING 12443
SWIDTH 1000 0
DWIDTH 8 0
BBX 4 3 2 5
BITMAP
20
90
40
ENDCHAR
STARTCHAR uni309C
ENCODING 12444
SWIDTH 875 0
DWIDTH 7 0
BBX 3 3 2 5
BITMAP
E0
A0
E0
ENDCHAR
STARTCHAR uni30A1
ENCODING 12449
SWIDTH 875 0
DWIDTH 7 0
BBX 5 5 0 0
BITMAP
F8
08
28
30
40
ENDCHAR
STARTCHAR uni30A2
ENCODING 12450
SWIDTH 1125 0
DWIDTH 9 0
BBX 7 7 0 0
BITMAP
FE
02
12
1C
10
10
60
ENDCHAR
STARTCHAR uni30A3
ENCODING 12451
SWIDTH 750 0
DWIDTH 6 0
BBX 4 5 0 0
BITMAP
10
20
E0
20
20
ENDCHAR
STARTCHAR uni30A4
ENCODING 12452
SWIDTH 1000 0
DWIDTH 8 0
BBX 6 8 0 0
BITMAP
04
04
08
30
D0
10
10
10
ENDCHAR
STARTCHAR uni30A5
ENCODING 12453
SWIDTH 875 0
DWIDTH 7 0
BBX 5 5 0 0
BITMAP
20
F8
88
10
60
ENDCHAR
STARTCHAR uni30A6
ENCODING 12454
SWIDTH 1125 0
DWIDTH 9 0
BBX 7 8 0 0
BITMAP
10
10
FE
82
82
02
04
18
ENDCHAR
STARTCHAR uni30A7
ENCODING 12455
SWIDTH 875 0
DWIDTH 7 0
BBX 5 4 0 0
BITMAP
70
20
20
F8
ENDCHAR
STARTCHAR uni30A8
ENCODING 12456
SWIDTH 1125 0
DWIDTH 9 0
BBX 7 7 0 0
BITMAP
7C
10
10
10
10
10
FE
ENDCHAR
STARTCHAR uni30A9
ENCODING 12457
SWIDTH 875 0
DWIDTH 7 0
BBX 5 5 0 0
BITMAP
10
F8
30
50
90
ENDCHAR
STARTCHAR uni30AA
ENCODING 12458
SWIDTH 1125 0
DWIDTH 9 0
BBX 7 8 0 0
BITMAP
08
08
FE
18
28
48
88
18
ENDCHAR
STARTCHAR uni30AB
ENCODING 12459
SWIDTH 1125 0
DWIDTH 9 0
BBX 7 8 0 0
BITMAP
20
20
7E
22
22
22
42
8C
ENDCHAR
STARTCHAR uni30AC
ENCODING 12460
SWIDTH 1375 0
DWIDTH 11 0
BBX 9 10 0 0
BITMAP
0100
0480
2200
2000
7E00
2200
2200
2200
4200
8C00
ENDCHAR
STARTCHAR uni30AD
ENCODING 12461
SWIDTH 1125 0
DWIDTH 9 0
BBX 7 8 0 0
BITMAP
10
FE
10
10
FE
10
10
10
ENDCHAR
STARTCHAR uni30AE
ENCODING 12462
SWIDTH 1250 0
DWIDTH 10 0
BBX 8 11 0 0
BITMAP
02
09
04
10
FE
10
10
FE
10
10
10
ENDCHAR
STARTCHAR uni30AF
ENCODING 12463
SWIDTH 1000 0
DWIDTH 8 0
BBX 6 7 0 0
BITMAP
7C
44
84
04
04
08
70
ENDCHAR
STARTCHAR uni30B0
ENCODING 12464
SWIDTH 1125 0
DWIDTH 9 0
BBX 7 11 0 0
BITMAP
04
12
08
00
7C
44
84
04
04
08
70
ENDCHAR
STARTCHAR uni30B1
ENCODING 12465
SWIDTH 1125 0
DWIDTH 9 0
BBX 7 8 0 0
BITMAP
40
40
7E
44
84
04
08
30
ENDCHAR
STARTCHAR uni30B2
ENCODING 12466
SWIDTH 1250 0
DWIDTH 10 0
BBX 8 10 0 0
BITMAP
02
09
44
40
7E
44
84
04
08
30
ENDCHAR
STARTCHAR uni30B3
ENCODING 12467
SWIDTH 1000 0
DWIDTH 8 0
BBX 6 7 0 0
BITMAP
FC
04
04
04
04
04
FC
ENDCHAR
STARTCHAR uni30B4
ENCODING 12468
SWIDTH 1250 0
DWIDTH 10 0
BBX 8 11 0 0
BITMAP
02
09
04
00
FC
04
04
04
04
04
FC
ENDCHAR
STARTCHAR uni30B5
ENCODING 12469
SWIDTH 1125 0
DWIDTH 9 0
BBX 7 8 0 0
BITMAP
44
44
FE
44
44
04
04
38
ENDCHAR
STARTCHAR uni30B6
ENCODING 12470
SWIDTH 1500 0
DWIDTH 12 0
BBX 10 11 0 0
BITMAP
0080
0240
0100
4400
4400
FE00
4400
4400
0400
0400
3800
ENDCHAR
STARTCHAR uni30B7
ENCODING 12471
SWIDTH 1000 0
DWIDTH 8 0
BBX 6 7 0 0
BITMAP
E0
04
E4
04
04
08
F0
ENDCHAR
STARTCHAR uni30B8
ENCODING 12472
SWIDTH 1125 0
DWIDTH 9 0
BBX 7 10 0 0
BITMAP
04
12
08
E0
04
E4
04
04
08
F0
ENDCHAR
STARTCHAR uni30B9
ENCODING 12473
SWIDTH 1125 0
DWIDTH 9 0
BBX 7 7 0 0
BITMAP
FC
04
04
08
18
24
C2
ENDCHAR
STARTCHAR uni30BA
ENCODING 12474
SWIDTH 1375 0
DWIDTH 11 0
BBX 9 10 0 0
BITMAP
0100
0480
0200
FC00
0400
0400
0800
1800
2400
C200
ENDCHAR
STARTCHAR uni30BB
ENCODING 12475
SWIDTH 1125 0
DWIDTH 9 0
BBX 7 8 0 0
BITMAP
40
40
FE
42
44
40
40
3C
ENDCHAR
STARTCHAR uni30BC
ENCODING 12476
SWIDTH 1250 0
DWIDTH 10 0
BBX 8 10 0 0
BITMAP
02
09
44
40
FE
42
44
40
40
3C
ENDCHAR
STARTCHAR uni30BD
ENCODING 12477
SWIDTH 1125 0
DWIDTH 9 0
BBX 7 7 0 0
BITMAP
82
82
42
04
04
08
30
ENDCHAR
STARTCHAR uni30BE
ENCODING 12478
SWIDTH 1250 0
DWIDTH 10 0
BBX 8 11 0 0
BITMAP
02
09
04
00
82
82
42
04
04
08
30
ENDCHAR
STARTCHAR uni30BF
ENCODING 12479
SWIDTH 1125 0
DWIDTH 9 0
BBX 7 7 0 0
BITMAP
7E
42
72
8E
02
04
38
ENDCHAR
STARTCHAR uni30C0
ENCODING 12480
SWIDTH 1250 0
DWIDTH 10 0
BBX 8 11 0 0
BITMAP
02
09
04
00
7E
42
72
8E
02
04
38
ENDCHAR
STARTCHAR uni30C1
ENCODING 12481
SWIDTH 1125 0
DWIDTH 9 0
BBX 7 8 0 0
BITMAP
06
78
08
FE
08
08
10
60
ENDCHAR
STARTCHAR uni30C2
ENCODING 12482
SWIDTH 1625 0
DWIDTH 13 0
BBX 11 8 0 0
BITMAP
0640
7920
0880
FE00
0800
0800
1000
6000
ENDCHAR
STARTCHAR uni30C3
ENCODING 12483
SWIDTH 875 0
DWIDTH 7 0
BBX 5 5 0 0
BITMAP
A8
A8
08
10
60
ENDCHAR
STARTCHAR uni30C4
ENCODING 12484
SWIDTH 1000 0
DWIDTH 8 0
BBX 6 7 0 0
BITMAP
A4
A4
A4
04
04
08
70
ENDCHAR
STARTCHAR uni30C5
ENCODING 12485
SWIDTH 1250 0
DWIDTH 10 0
BBX 8 11 0 0
BITMAP
02
09
04
00
A4
A4
A4
04
04
08
70
ENDCHAR
STARTCHAR uni30C6
ENCODING 12486
SWIDTH 1125 0
DWIDTH 9 0
BBX 7 7 0 0
BITMAP
7C
00
FE
08
08
08
30
ENDCHAR
STARTCHAR uni30C7
ENCODING 12487
SWIDTH 1375 0
DWIDTH 11 0
BBX 9 10 0 0
BITMAP
0100
0480
0200
7C00
0000
FE00
0800
0800
0800
3000
ENDCHAR
STARTCHAR uni30C8
ENCODING 12488
SWIDTH 875 0
DWIDTH 7 0
BBX 5 8 0 0
BITMAP
80
80
80
F0
88
80
80
80
ENDCHAR
STARTCHAR uni30C9
ENCODING 12489
SWIDTH 1125 0
DWIDTH 9 0
BBX 7 9 0 0
BITMAP
04
92
88
80
F0
88
80
80
80
ENDCHAR
STARTCHAR uni30CA
ENCODING 12490
SWIDTH 1125 0
DWIDTH 9 0
BBX 7 8 0 0
BITMAP
08
08
FE
08
08
08
10
60
ENDCHAR
STARTCHAR uni30CB
ENCODING 12491
SWIDTH 1125 0
DWIDTH 9 0
BBX 7 7 0 0
BITMAP
7C
00
00
00
00
00
FE
ENDCHAR
STARTCHAR uni30CC
ENCODING 12492
SWIDTH 1125 0
DWIDTH 9 0
BBX 7 7 0 0
BITMAP
FE
02
02
14
08
14
62
ENDCHAR
STARTCHAR uni30CD
ENCODING 12493
SWIDTH 1125 0
DWIDTH 9 0
BBX 7 8 0 0
BITMAP
10
10
FE
04
18
34
D2
10
ENDCHAR
STARTCHAR uni30CE
ENCODING 12494
SWIDTH 1000 0
DWIDTH 8 0
BBX 6 7 0 0
BITMAP
04
04
04
08
08
30
C0
ENDCHAR
STARTCHAR uni30CF
ENCODING 12495
SWIDTH 1125 0
DWIDTH 9 0
BBX 7 6 0 0
BITMAP
48
44
44
42
82
82
ENDCHAR
STARTCHAR uni30D0
ENCODING 12496
SWIDTH 1375 0
DWIDTH 11 0
BBX 9 9 0 0
BITMAP
0100
0480
0200
4800
4400
4400
4200
8200
8200
ENDCHAR
STARTCHAR uni30D1
ENCODING 12497
SWIDTH 1375 0
DWIDTH 11 0
BBX 9 9 0 0
BITMAP
0100
0280
0100
4800
4400
4400
4200
8200
8200
ENDCHAR
STARTCHAR uni30D2
ENCODING 12498
SWIDTH 1125 0
DWIDTH 9 0
BBX 7 8 0 0
BITMAP
80
80
8C
F0
80
80
80
7E
ENDCHAR
STARTCHAR uni30D3
ENCODING 12499
SWIDTH 1250 0
DWIDTH 10 0
BBX 8 10 0 0
BITMAP
02
09
84
80
8C
F0
80
80
80
7E
ENDCHAR
STARTCHAR uni30D4
ENCODING 12500
SWIDTH 1125 0
DWIDTH 9 0
BBX 7 10 0 0
BITMAP
04
0A
84
80
8C
F0
80
80
80
7E
ENDCHAR
STARTCHAR uni30D5
ENCODING 12501
SWIDTH 1125 0
DWIDTH 9 0
BBX 7 7 0 0
BITMAP
FE
02
02
04
04
08
30
ENDCHAR
STARTCHAR uni30D6
ENCODING 12502
SWIDTH 1500 0
DWIDTH 12 0
BBX 10 10 0 0
BITMAP
0080
0240
0100
FE00
0200
0200
0400
0400
0800
3000
ENDCHAR
STARTCHAR uni30D7
ENCODING 12503
SWIDTH 1500 0
DWIDTH 12 0
BBX 10 10 0 0
BITMAP
0080
0140
0080
FE00
0200
0200
0400
0400
0800
3000
ENDCHAR
STARTCHAR uni30D8
ENCODING 12504
SWIDTH 1125 0
DWIDTH 9 0
BBX 7 5 0 0
BITMAP
60
50
88
04
02
ENDCHAR
STARTCHAR uni30D9
ENCODING 12505
SWIDTH 1250 0
DWIDTH 10 0
BBX 8 7 0 0
BITMAP
02
09
64
50
88
04
02
ENDCHAR
STARTCHAR uni30DA
ENCODING 12506
SWIDTH 1125 0
DWIDTH 9 0
BBX 7 8 0 0
BITMAP
04
0A
04
60
50
88
04
02
ENDCHAR
STARTCHAR uni30DB
ENCODING 12507
SWIDTH 1125 0
DWIDTH 9 0
BBX 7 8 0 0
BITMAP
10
10
FE
10
54
52
52
92
ENDCHAR
STARTCHAR uni30DC
ENCODING 12508
SWIDTH 1375 0
DWIDTH 11 0
BBX 9 10 0 0
BITMAP
0100
0480
1200
1000
FE00
1000
5400
5200
5200
9200
ENDCHAR
STARTCHAR uni30DD
ENCODING 12509
SWIDTH 1250 0
DWIDTH 10 0
BBX 8 10 0 0
BITMAP
02
05
12
10
FE
10
54
52
52
92
ENDCHAR
STARTCHAR uni30DE
ENCODING 12510
SWIDTH 1125 0
DWIDTH 9 0
BBX 7 7 0 0
BITMAP
FE
02
02
44
28
10
08
ENDCHAR
STARTCHAR uni30DF
ENCODING 12511
SWIDTH 1000 0
DWIDTH 8 0
BBX 6 8 0 0
BITMAP
78
00
00
78
00
00
F0
0C
ENDCHAR
STARTCHAR uni30E0
ENCODING 12512
SWIDTH 1125 0
DWIDTH 9 0
BBX 7 7 0 0
BITMAP
20
20
20
44
44
82
FE
ENDCHAR
STARTCHAR uni30E1
ENCODING 12513
SWIDTH 1125 0
DWIDTH 9 0
BBX 7 7 0 0
BITMAP
04
24
14
08
0C
32
C0
ENDCHAR
STARTCHAR uni30E2
ENCODING 12514
SWIDTH 1125 0
DWIDTH 9 0
BBX 7 7 0 0
BITMAP
FC
20
20
FE
20
20
1E
ENDCHAR
STARTCHAR uni30E3
ENCODING 12515
SWIDTH 875 0
DWIDTH 7 0
BBX 5 5 0 0
BITMAP
40
F8
48
50
40
ENDCHAR
STARTCHAR uni30E4
ENCODING 12516
SWIDTH 1125 0
DWIDTH 9 0
BBX 7 7 0 0
BITMAP
20
FE
22
24
28
20
20
ENDCHAR
STARTCHAR uni30E5
ENCODING 12517
SWIDTH 875 0
DWIDTH 7 0
BBX 5 4 0 0
BITMAP
70
10
10
F8
ENDCHAR
STARTCHAR uni30E6
ENCODING 12518
SWIDTH 1125 0
DWIDTH 9 0
BBX 7 6 0 0
BITMAP
78
08
08
08
08
FE
ENDCHAR
STARTCHAR uni30E7
ENCODING 12519
SWIDTH 750 0
DWIDTH 6 0
BBX 4 5 0 0
BITMAP
F0
10
F0
10
F0
ENDCHAR
STARTCHAR uni30E8
ENCODING 12520
SWIDTH 1125 0
DWIDTH 9 0
BBX 7 7 0 -1
BITMAP
FE
02
02
7E
02
02
FE
ENDCHAR
STARTCHAR uni30E9
ENCODING 12521
SWIDTH 1125 0
DWIDTH 9 0
BBX 7 7 0 0
BITMAP
7C
00
FE
02
04
08
30
ENDCHAR
STARTCHAR uni30EA
ENCODING 12522
SWIDTH 875 0
DWIDTH 7 0
BBX 5 7 0 0
BITMAP
88
88
88
88
08
10
E0
ENDCHAR
STARTCHAR uni30EB
ENCODING 12523
SWIDTH 1125 0
DWIDTH 9 0
BBX 7 7 0 0
BITMAP
50
50
50
50
50
52
9C
ENDCHAR
STARTCHAR uni30EC
ENCODING 12524
SWIDTH 1000 0
DWIDTH 8 0
BBX 6 7 0 0
BITMAP
80
80
80
84
88
B0
C0
ENDCHAR
STARTCHAR uni30ED
ENCODING 12525
SWIDTH 1125 0
DWIDTH 9 0
BBX 7 6 0 0
BITMAP
FE
82
82
82
82
FE
ENDCHAR
STARTCHAR uni30EE
ENCODING 12526
SWIDTH 875 0
DWIDTH 7 0
BBX 5 5 0 0
BITMAP
F8
88
08
10
60
ENDCHAR
STARTCHAR uni30EF
ENCODING 12527
SWIDTH 1125 0
DWIDTH 9 0
BBX 7 7 0 0
BITMAP
FE
82
82
82
02
04
38
ENDCHAR
STARTCHAR uni30F0
ENCODING 12528
SWIDTH 1125 0
DWIDTH 9 0
BBX 7 8 0 0
BITMAP
08
08
7E
28
28
FE
08
08
ENDCHAR
STARTCHAR uni30F1
ENCODING 12529
SWIDTH 1125 0
DWIDTH 9 0
BBX 7 5 0 1
BITMAP
7E
04
08
08
FE
ENDCHAR
STARTCHAR uni30F2
ENCODING 12530
SWIDTH 1125 0
DWIDTH 9 0
BBX 7 7 0 0
BITMAP
FE
02
02
7E
02
04
78
ENDCHAR
STARTCHAR uni30F3
ENCODING 12531
SWIDTH 1125 0
DWIDTH 9 0
BBX 7 7 0 0
BITMAP
E2
02
02
02
02
04
F8
ENDCHAR
STARTCHAR uni30F4
ENCODING 12532
SWIDTH 1375 0
DWIDTH 11 0
BBX 9 10 0 0
BITMAP
0100
0480
1200
1000
FE00
8200
8200
0200
0400
1800
ENDCHAR
STARTCHAR uni30F7
ENCODING 12535
SWIDTH 1375 0
DWIDTH 11 0
BBX 9 11 0 0
BITMAP
0100
0480
0200
0000
FE00
8200
8200
8200
0200
0400
3800
ENDCHAR
STARTCHAR uni30F8
ENCODING 12536
SWIDTH 1500 0
DWIDTH 12 0
BBX 10 9 0 0
BITMAP
0080
0A40
0900
7E00
2800
2800
FE00
0800
0800
ENDCHAR
STARTCHAR uni30F9
ENCODING 12537
SWIDTH 1500 0
DWIDTH 12 0
BBX 10 8 0 1
BITMAP
0080
0240
0100
7E00
0400
0800
0800
FE00
ENDCHAR
STARTCHAR uni30FA
ENCODING 12538
SWIDTH 1375 0
DWIDTH 11 0
BBX 9 11 0 0
BITMAP
0100
0480
0200
0000
FE00
0200
0200
7E00
0200
0400
7800
ENDCHAR
STARTCHAR uni30FB
ENCODING 12539
SWIDTH 500 0
DWIDTH 4 0
BBX 2 2 0 3
BITMAP
C0
C0
ENDCHAR
STARTCHAR uni30FC
ENCODING 12540
SWIDTH 1125 0
DWIDTH 9 0
BBX 7 1 0 3
BITMAP
FE
ENDCHAR
STARTCHAR .notdef
ENCODING -1
SWIDTH 1125 0
DWIDTH 9 0
BBX 7 7 0 0
BITMAP
FE
E6
DE
FE
C6
DE
FE
ENDCHAR
STARTCHAR glyph1
ENCODING -1
SWIDTH 125 0
DWIDTH 1 0
BBX 1 1 0 0
BITMAP
00
ENDCHAR
STARTCHAR glyph2
ENCODING -1
SWIDTH 375 0
DWIDTH 3 0
BBX 1 1 0 0
BITMAP
00
ENDCHAR
ENDFONT
